#N canvas 847 266 450 369 10;
#X obj 18 10 inlet;
#X obj 18 35 bng 15 250 50 0 empty empty empty 17 7 0 10 -262144 -1
-1;
#X obj 18 57 random 7;
#X obj 18 87 sel 0 1 2 3 4 5 6;
#X msg 19 154 0;
#X msg 56 154 2;
#X msg 91 155 3;
#X msg 133 155 5;
#X msg 171 156 7;
#X msg 219 158 8;
#X msg 260 160 10;
#X floatatom 51 205 5 0 0 0 - - -, f 5;
#X obj 52 229 + 50;
#X obj 52 252 mtof;
#X obj 54 329 outlet;
#X connect 0 0 1 0;
#X connect 1 0 2 0;
#X connect 2 0 3 0;
#X connect 3 0 4 0;
#X connect 3 1 5 0;
#X connect 3 2 6 0;
#X connect 3 3 7 0;
#X connect 3 4 8 0;
#X connect 3 5 9 0;
#X connect 3 6 10 0;
#X connect 4 0 11 0;
#X connect 5 0 11 0;
#X connect 6 0 11 0;
#X connect 7 0 11 0;
#X connect 8 0 11 0;
#X connect 9 0 11 0;
#X connect 10 0 11 0;
#X connect 11 0 12 0;
#X connect 12 0 13 0;
#X connect 13 0 14 0;
