#N canvas 604 322 691 421 10;
#X floatatom 34 88 5 0 0 0 - - -, f 5;
#X obj 18 116 f;
#X obj 19 139 == 1;
#X obj 19 173 sel 0 1;
#X obj 38 195 bng 15 250 50 0 empty empty empty 17 7 0 10 -262144 -1
-1;
#X floatatom 108 88 5 0 0 0 - - -, f 5;
#X obj 96 121 f;
#X obj 96 142 == 1;
#X obj 96 176 sel 0 1;
#X obj 115 198 bng 15 250 50 0 empty empty empty 17 7 0 10 -262144
-1 -1;
#X floatatom 179 92 5 0 0 0 - - -, f 5;
#X obj 168 120 f;
#X obj 168 141 == 1;
#X obj 168 175 sel 0 1;
#X obj 187 197 bng 15 250 50 0 empty empty empty 17 7 0 10 -262144
-1 -1;
#X floatatom 254 87 5 0 0 0 - - -, f 5;
#X obj 241 118 f;
#X obj 241 139 == 1;
#X obj 241 173 sel 0 1;
#X obj 260 195 bng 15 250 50 0 empty empty empty 17 7 0 10 -262144
-1 -1;
#X floatatom 323 79 5 0 0 0 - - -, f 5;
#X obj 312 119 f;
#X obj 312 140 == 1;
#X obj 312 174 sel 0 1;
#X obj 331 196 bng 15 250 50 0 empty empty empty 17 7 0 10 -262144
-1 -1;
#X floatatom 400 76 5 0 0 0 - - -, f 5;
#X obj 399 120 f;
#X obj 399 141 == 1;
#X obj 399 175 sel 0 1;
#X obj 418 197 bng 15 250 50 0 empty empty empty 17 7 0 10 -262144
-1 -1;
#X floatatom 463 82 5 0 0 0 - - -, f 5;
#X obj 472 122 f;
#X obj 472 143 == 1;
#X obj 472 177 sel 0 1;
#X obj 491 199 bng 15 250 50 0 empty empty empty 17 7 0 10 -262144
-1 -1;
#X floatatom 545 72 5 0 0 0 - - -, f 5;
#X obj 549 121 f;
#X obj 549 142 == 1;
#X obj 549 176 sel 0 1;
#X obj 568 198 bng 15 250 50 0 empty empty empty 17 7 0 10 -262144
-1 -1;
#X obj 19 29 inlet;
#X obj 118 253 outlet;
#X obj 68 29 inlet;
#X obj 120 29 inlet;
#X obj 174 29 inlet;
#X obj 224 29 inlet;
#X obj 271 29 inlet;
#X obj 322 29 inlet;
#X obj 372 29 inlet;
#X obj 47 7 inlet;
#X obj 96 7 inlet;
#X obj 148 7 inlet;
#X obj 202 7 inlet;
#X obj 252 7 inlet;
#X obj 299 7 inlet;
#X obj 350 7 inlet;
#X obj 400 7 inlet, f 45;
#X connect 0 0 1 1;
#X connect 1 0 2 0;
#X connect 2 0 3 0;
#X connect 3 1 4 0;
#X connect 4 0 41 0;
#X connect 5 0 6 1;
#X connect 6 0 7 0;
#X connect 7 0 8 0;
#X connect 8 1 9 0;
#X connect 9 0 41 0;
#X connect 10 0 11 1;
#X connect 11 0 12 0;
#X connect 12 0 13 0;
#X connect 13 1 14 0;
#X connect 14 0 41 0;
#X connect 15 0 16 1;
#X connect 16 0 17 0;
#X connect 17 0 18 0;
#X connect 18 1 19 0;
#X connect 19 0 41 0;
#X connect 20 0 21 1;
#X connect 21 0 22 0;
#X connect 22 0 23 0;
#X connect 23 1 24 0;
#X connect 24 0 41 0;
#X connect 25 0 26 1;
#X connect 26 0 27 0;
#X connect 27 0 28 0;
#X connect 28 1 29 0;
#X connect 29 0 41 0;
#X connect 30 0 31 1;
#X connect 31 0 32 0;
#X connect 32 0 33 0;
#X connect 33 1 34 0;
#X connect 34 0 41 0;
#X connect 35 0 36 1;
#X connect 36 0 37 0;
#X connect 37 0 38 0;
#X connect 38 1 39 0;
#X connect 39 0 41 0;
#X connect 40 0 0 0;
#X connect 42 0 5 0;
#X connect 43 0 10 0;
#X connect 44 0 15 0;
#X connect 45 0 20 0;
#X connect 46 0 25 0;
#X connect 47 0 30 0;
#X connect 48 0 35 0;
#X connect 49 0 1 0;
#X connect 50 0 6 0;
#X connect 51 0 11 0;
#X connect 52 0 16 0;
#X connect 53 0 21 0;
#X connect 54 0 26 0;
#X connect 55 0 31 0;
#X connect 56 0 36 0;
