#N canvas 173 100 733 648 10;
#X obj 59 19 metro;
#X obj 60 40 f;
#X obj 55 82 hradio 16 1 0 8 empty empty empty 0 -8 0 10 -262144 -1
-1 0;
#X obj 90 39 + 1;
#X obj 57 61 mod 8;
#X floatatom 57 100 5 0 0 0 - - -, f 5;
#X obj 87 307 bng 15 250 50 0 empty empty empty 17 7 0 10 -262144 -1
-1;
#N canvas 116 285 450 300 adrowtop 0;
#X obj 63 47 select 0 1 2 3 4 5 6 7;
#X obj 253 77 tgl 15 0 empty empty empty 17 7 0 10 -262144 -1 -1 1
1;
#X obj 271 77 tgl 15 0 empty empty empty 17 7 0 10 -262144 -1 -1 0
1;
#X obj 289 77 tgl 15 0 empty empty empty 17 7 0 10 -262144 -1 -1 1
1;
#X obj 307 77 tgl 15 0 empty empty empty 17 7 0 10 -262144 -1 -1 0
1;
#X obj 325 77 tgl 15 0 empty empty empty 17 7 0 10 -262144 -1 -1 1
1;
#X obj 343 77 tgl 15 0 empty empty empty 17 7 0 10 -262144 -1 -1 0
1;
#X obj 361 77 tgl 15 0 empty empty empty 17 7 0 10 -262144 -1 -1 1
1;
#X obj 379 77 tgl 15 0 empty empty empty 17 7 0 10 -262144 -1 -1 0
1;
#X obj 61 75 bng 15 250 50 0 empty empty empty 17 7 0 10 -262144 -1
-1;
#X obj 78 75 bng 15 250 50 0 empty empty empty 17 7 0 10 -262144 -1
-1;
#X obj 95 75 bng 15 250 50 0 empty empty empty 17 7 0 10 -262144 -1
-1;
#X obj 112 75 bng 15 250 50 0 empty empty empty 17 7 0 10 -262144 -1
-1;
#X obj 129 75 bng 15 250 50 0 empty empty empty 17 7 0 10 -262144 -1
-1;
#X obj 146 75 bng 15 250 50 0 empty empty empty 17 7 0 10 -262144 -1
-1;
#X obj 163 75 bng 15 250 50 0 empty empty empty 17 7 0 10 -262144 -1
-1;
#X obj 181 75 bng 15 250 50 0 empty empty empty 17 7 0 10 -262144 -1
-1;
#N canvas 21 131 592 330 adrow 0;
#X floatatom 19 82 5 0 0 0 - - -, f 5;
#X obj 19 104 f;
#X obj 19 125 == 1;
#X obj 19 146 sel 0 1;
#X obj 38 168 bng 15 250 50 0 empty empty empty 17 7 0 10 -262144 -1
-1;
#X floatatom 72 82 5 0 0 0 - - -, f 5;
#X obj 72 104 f;
#X obj 72 125 == 1;
#X obj 72 146 sel 0 1;
#X obj 91 168 bng 15 250 50 0 empty empty empty 17 7 0 10 -262144 -1
-1;
#X floatatom 123 82 5 0 0 0 - - -, f 5;
#X obj 123 104 f;
#X obj 123 125 == 1;
#X obj 123 146 sel 0 1;
#X obj 142 168 bng 15 250 50 0 empty empty empty 17 7 0 10 -262144
-1 -1;
#X floatatom 176 82 5 0 0 0 - - -, f 5;
#X obj 176 104 f;
#X obj 176 125 == 1;
#X obj 176 146 sel 0 1;
#X obj 195 168 bng 15 250 50 0 empty empty empty 17 7 0 10 -262144
-1 -1;
#X floatatom 226 82 5 0 0 0 - - -, f 5;
#X obj 226 104 f;
#X obj 226 125 == 1;
#X obj 226 146 sel 0 1;
#X obj 245 168 bng 15 250 50 0 empty empty empty 17 7 0 10 -262144
-1 -1;
#X floatatom 279 82 5 0 0 0 - - -, f 5;
#X obj 279 104 f;
#X obj 279 125 == 1;
#X obj 279 146 sel 0 1;
#X obj 298 168 bng 15 250 50 0 empty empty empty 17 7 0 10 -262144
-1 -1;
#X floatatom 330 82 5 0 0 0 - - -, f 5;
#X obj 330 104 f;
#X obj 330 125 == 1;
#X obj 330 146 sel 0 1;
#X obj 349 168 bng 15 250 50 0 empty empty empty 17 7 0 10 -262144
-1 -1;
#X floatatom 383 82 5 0 0 0 - - -, f 5;
#X obj 383 104 f;
#X obj 383 125 == 1;
#X obj 383 146 sel 0 1;
#X obj 402 168 bng 15 250 50 0 empty empty empty 17 7 0 10 -262144
-1 -1;
#X obj 19 29 inlet;
#X obj 155 224 outlet;
#X obj 68 29 inlet;
#X obj 120 29 inlet;
#X obj 174 29 inlet;
#X obj 224 29 inlet;
#X obj 271 29 inlet;
#X obj 322 29 inlet;
#X obj 372 29 inlet;
#X obj 47 7 inlet;
#X obj 96 7 inlet;
#X obj 148 7 inlet;
#X obj 202 7 inlet;
#X obj 252 7 inlet;
#X obj 299 7 inlet;
#X obj 350 7 inlet;
#X obj 400 7 inlet, f 45;
#X connect 0 0 1 0;
#X connect 1 0 2 0;
#X connect 2 0 3 0;
#X connect 3 1 4 0;
#X connect 4 0 41 0;
#X connect 5 0 6 0;
#X connect 6 0 7 0;
#X connect 7 0 8 0;
#X connect 8 1 9 0;
#X connect 9 0 41 0;
#X connect 10 0 11 0;
#X connect 11 0 12 0;
#X connect 12 0 13 0;
#X connect 13 1 14 0;
#X connect 14 0 41 0;
#X connect 15 0 16 0;
#X connect 16 0 17 0;
#X connect 17 0 18 0;
#X connect 18 1 19 0;
#X connect 19 0 41 0;
#X connect 20 0 21 0;
#X connect 21 0 22 0;
#X connect 22 0 23 0;
#X connect 23 1 24 0;
#X connect 24 0 41 0;
#X connect 25 0 26 0;
#X connect 26 0 27 0;
#X connect 27 0 28 0;
#X connect 28 1 29 0;
#X connect 29 0 41 0;
#X connect 30 0 31 0;
#X connect 31 0 32 0;
#X connect 32 0 33 0;
#X connect 33 1 34 0;
#X connect 34 0 41 0;
#X connect 35 0 36 0;
#X connect 36 0 37 0;
#X connect 37 0 38 0;
#X connect 38 1 39 0;
#X connect 39 0 41 0;
#X connect 40 0 0 0;
#X connect 42 0 5 0;
#X connect 43 0 10 0;
#X connect 44 0 15 0;
#X connect 45 0 20 0;
#X connect 46 0 25 0;
#X connect 47 0 30 0;
#X connect 48 0 35 0;
#X connect 49 0 1 0;
#X connect 50 0 6 0;
#X connect 51 0 11 0;
#X connect 52 0 16 0;
#X connect 53 0 21 0;
#X connect 54 0 26 0;
#X connect 55 0 31 0;
#X connect 56 0 36 0;
#X restore 68 176 pd adrow;
#X obj 68 207 bng 15 250 50 0 empty empty empty 17 7 0 10 -262144 -1
-1;
#X obj 64 24 inlet;
#X obj 67 228 outlet, f 8;
#X obj 158 24 inlet;
#X obj 192 24 inlet;
#X obj 226 24 inlet;
#X obj 260 24 inlet;
#X obj 294 24 inlet;
#X obj 328 24 inlet;
#X obj 362 24 inlet;
#X obj 396 24 inlet, f 31;
#X connect 0 0 9 0;
#X connect 0 1 10 0;
#X connect 0 2 11 0;
#X connect 0 3 12 0;
#X connect 0 4 13 0;
#X connect 0 5 14 0;
#X connect 0 6 15 0;
#X connect 0 7 16 0;
#X connect 1 0 17 0;
#X connect 2 0 17 2;
#X connect 3 0 17 4;
#X connect 4 0 17 6;
#X connect 5 0 17 8;
#X connect 6 0 17 10;
#X connect 7 0 17 12;
#X connect 8 0 17 14;
#X connect 9 0 17 1;
#X connect 10 0 17 3;
#X connect 11 0 17 5;
#X connect 12 0 17 7;
#X connect 13 0 17 9;
#X connect 14 0 17 11;
#X connect 15 0 17 13;
#X connect 16 0 17 15;
#X connect 17 0 18 0;
#X connect 18 0 20 0;
#X connect 19 0 0 0;
#X connect 21 0 1 0;
#X connect 22 0 2 0;
#X connect 23 0 3 0;
#X connect 24 0 4 0;
#X connect 25 0 5 0;
#X connect 26 0 6 0;
#X connect 27 0 7 0;
#X connect 28 0 8 0;
#X coords 0 300 1 299 200 15 0;
#X restore 319 142 pd adrowtop;
#X obj 130 307 bng 15 250 50 0 empty empty empty 17 7 0 10 -262144
-1 -1;
#X obj 169 306 bng 15 250 50 0 empty empty empty 17 7 0 10 -262144
-1 -1;
#X obj 217 308 bng 15 250 50 0 empty empty empty 17 7 0 10 -262144
-1 -1;
#X obj 256 308 bng 15 250 50 0 empty empty empty 17 7 0 10 -262144
-1 -1;
#X obj 300 308 bng 15 250 50 0 empty empty empty 17 7 0 10 -262144
-1 -1;
#X obj 345 309 bng 15 250 50 0 empty empty empty 17 7 0 10 -262144
-1 -1;
#X obj 389 308 bng 15 250 50 0 empty empty empty 17 7 0 10 -262144
-1 -1;
#X obj 22 19 inlet;
#X obj 131 327 outlet;
#X obj 88 327 outlet;
#X obj 217 327 outlet;
#X obj 174 327 outlet;
#X obj 303 327 outlet;
#X obj 260 327 outlet;
#X obj 389 327 outlet;
#X obj 346 327 outlet;
#X obj 97 19 inlet;
#X obj 128 126 tgl 15 0 empty empty empty 17 7 0 10 -262144 -1 -1 1
1;
#X obj 146 126 tgl 15 0 empty empty empty 17 7 0 10 -262144 -1 -1 0
1;
#X obj 164 126 tgl 15 0 empty empty empty 17 7 0 10 -262144 -1 -1 1
1;
#X obj 182 126 tgl 15 0 empty empty empty 17 7 0 10 -262144 -1 -1 0
1;
#X obj 200 126 tgl 15 0 empty empty empty 17 7 0 10 -262144 -1 -1 1
1;
#X obj 218 126 tgl 15 0 empty empty empty 17 7 0 10 -262144 -1 -1 0
1;
#X obj 236 126 tgl 15 0 empty empty empty 17 7 0 10 -262144 -1 -1 1
1;
#X obj 255 126 tgl 15 0 empty empty empty 17 7 0 10 -262144 -1 -1 0
1;
#X obj 128 145 tgl 15 0 empty empty empty 17 7 0 10 -262144 -1 -1 0
1;
#X obj 146 145 tgl 15 0 empty empty empty 17 7 0 10 -262144 -1 -1 1
1;
#X obj 164 145 tgl 15 0 empty empty empty 17 7 0 10 -262144 -1 -1 0
1;
#X obj 182 145 tgl 15 0 empty empty empty 17 7 0 10 -262144 -1 -1 1
1;
#X obj 200 145 tgl 15 0 empty empty empty 17 7 0 10 -262144 -1 -1 0
1;
#X obj 218 145 tgl 15 0 empty empty empty 17 7 0 10 -262144 -1 -1 1
1;
#X obj 236 145 tgl 15 0 empty empty empty 17 7 0 10 -262144 -1 -1 0
1;
#X obj 255 145 tgl 15 0 empty empty empty 17 7 0 10 -262144 -1 -1 1
1;
#N canvas 116 285 450 300 adrowtop 0;
#X obj 63 47 select 0 1 2 3 4 5 6 7;
#X obj 253 77 tgl 15 0 empty empty empty 17 7 0 10 -262144 -1 -1 0
1;
#X obj 271 77 tgl 15 0 empty empty empty 17 7 0 10 -262144 -1 -1 1
1;
#X obj 289 77 tgl 15 0 empty empty empty 17 7 0 10 -262144 -1 -1 0
1;
#X obj 307 77 tgl 15 0 empty empty empty 17 7 0 10 -262144 -1 -1 1
1;
#X obj 325 77 tgl 15 0 empty empty empty 17 7 0 10 -262144 -1 -1 0
1;
#X obj 343 77 tgl 15 0 empty empty empty 17 7 0 10 -262144 -1 -1 1
1;
#X obj 361 77 tgl 15 0 empty empty empty 17 7 0 10 -262144 -1 -1 0
1;
#X obj 379 77 tgl 15 0 empty empty empty 17 7 0 10 -262144 -1 -1 1
1;
#X obj 61 75 bng 15 250 50 0 empty empty empty 17 7 0 10 -262144 -1
-1;
#X obj 78 75 bng 15 250 50 0 empty empty empty 17 7 0 10 -262144 -1
-1;
#X obj 95 75 bng 15 250 50 0 empty empty empty 17 7 0 10 -262144 -1
-1;
#X obj 112 75 bng 15 250 50 0 empty empty empty 17 7 0 10 -262144 -1
-1;
#X obj 129 75 bng 15 250 50 0 empty empty empty 17 7 0 10 -262144 -1
-1;
#X obj 146 75 bng 15 250 50 0 empty empty empty 17 7 0 10 -262144 -1
-1;
#X obj 163 75 bng 15 250 50 0 empty empty empty 17 7 0 10 -262144 -1
-1;
#X obj 181 75 bng 15 250 50 0 empty empty empty 17 7 0 10 -262144 -1
-1;
#N canvas 21 131 592 330 adrow 0;
#X floatatom 19 82 5 0 0 0 - - -, f 5;
#X obj 19 104 f;
#X obj 19 125 == 1;
#X obj 19 146 sel 0 1;
#X obj 38 168 bng 15 250 50 0 empty empty empty 17 7 0 10 -262144 -1
-1;
#X floatatom 72 82 5 0 0 0 - - -, f 5;
#X obj 72 104 f;
#X obj 72 125 == 1;
#X obj 72 146 sel 0 1;
#X obj 91 168 bng 15 250 50 0 empty empty empty 17 7 0 10 -262144 -1
-1;
#X floatatom 123 82 5 0 0 0 - - -, f 5;
#X obj 123 104 f;
#X obj 123 125 == 1;
#X obj 123 146 sel 0 1;
#X obj 142 168 bng 15 250 50 0 empty empty empty 17 7 0 10 -262144
-1 -1;
#X floatatom 176 82 5 0 0 0 - - -, f 5;
#X obj 176 104 f;
#X obj 176 125 == 1;
#X obj 176 146 sel 0 1;
#X obj 195 168 bng 15 250 50 0 empty empty empty 17 7 0 10 -262144
-1 -1;
#X floatatom 226 82 5 0 0 0 - - -, f 5;
#X obj 226 104 f;
#X obj 226 125 == 1;
#X obj 226 146 sel 0 1;
#X obj 245 168 bng 15 250 50 0 empty empty empty 17 7 0 10 -262144
-1 -1;
#X floatatom 279 82 5 0 0 0 - - -, f 5;
#X obj 279 104 f;
#X obj 279 125 == 1;
#X obj 279 146 sel 0 1;
#X obj 298 168 bng 15 250 50 0 empty empty empty 17 7 0 10 -262144
-1 -1;
#X floatatom 330 82 5 0 0 0 - - -, f 5;
#X obj 330 104 f;
#X obj 330 125 == 1;
#X obj 330 146 sel 0 1;
#X obj 349 168 bng 15 250 50 0 empty empty empty 17 7 0 10 -262144
-1 -1;
#X floatatom 383 82 5 0 0 0 - - -, f 5;
#X obj 383 104 f;
#X obj 383 125 == 1;
#X obj 383 146 sel 0 1;
#X obj 402 168 bng 15 250 50 0 empty empty empty 17 7 0 10 -262144
-1 -1;
#X obj 19 29 inlet;
#X obj 155 224 outlet;
#X obj 68 29 inlet;
#X obj 120 29 inlet;
#X obj 174 29 inlet;
#X obj 224 29 inlet;
#X obj 271 29 inlet;
#X obj 322 29 inlet;
#X obj 372 29 inlet;
#X obj 47 7 inlet;
#X obj 96 7 inlet;
#X obj 148 7 inlet;
#X obj 202 7 inlet;
#X obj 252 7 inlet;
#X obj 299 7 inlet;
#X obj 350 7 inlet;
#X obj 400 7 inlet, f 45;
#X connect 0 0 1 0;
#X connect 1 0 2 0;
#X connect 2 0 3 0;
#X connect 3 1 4 0;
#X connect 4 0 41 0;
#X connect 5 0 6 0;
#X connect 6 0 7 0;
#X connect 7 0 8 0;
#X connect 8 1 9 0;
#X connect 9 0 41 0;
#X connect 10 0 11 0;
#X connect 11 0 12 0;
#X connect 12 0 13 0;
#X connect 13 1 14 0;
#X connect 14 0 41 0;
#X connect 15 0 16 0;
#X connect 16 0 17 0;
#X connect 17 0 18 0;
#X connect 18 1 19 0;
#X connect 19 0 41 0;
#X connect 20 0 21 0;
#X connect 21 0 22 0;
#X connect 22 0 23 0;
#X connect 23 1 24 0;
#X connect 24 0 41 0;
#X connect 25 0 26 0;
#X connect 26 0 27 0;
#X connect 27 0 28 0;
#X connect 28 1 29 0;
#X connect 29 0 41 0;
#X connect 30 0 31 0;
#X connect 31 0 32 0;
#X connect 32 0 33 0;
#X connect 33 1 34 0;
#X connect 34 0 41 0;
#X connect 35 0 36 0;
#X connect 36 0 37 0;
#X connect 37 0 38 0;
#X connect 38 1 39 0;
#X connect 39 0 41 0;
#X connect 40 0 0 0;
#X connect 42 0 5 0;
#X connect 43 0 10 0;
#X connect 44 0 15 0;
#X connect 45 0 20 0;
#X connect 46 0 25 0;
#X connect 47 0 30 0;
#X connect 48 0 35 0;
#X connect 49 0 1 0;
#X connect 50 0 6 0;
#X connect 51 0 11 0;
#X connect 52 0 16 0;
#X connect 53 0 21 0;
#X connect 54 0 26 0;
#X connect 55 0 31 0;
#X connect 56 0 36 0;
#X restore 68 176 pd adrow;
#X obj 68 207 bng 15 250 50 0 empty empty empty 17 7 0 10 -262144 -1
-1;
#X obj 64 24 inlet;
#X obj 67 228 outlet, f 8;
#X obj 158 24 inlet;
#X obj 192 24 inlet;
#X obj 226 24 inlet;
#X obj 260 24 inlet;
#X obj 294 24 inlet;
#X obj 328 24 inlet;
#X obj 362 24 inlet;
#X obj 396 24 inlet, f 31;
#X connect 0 0 9 0;
#X connect 0 1 10 0;
#X connect 0 2 11 0;
#X connect 0 3 12 0;
#X connect 0 4 13 0;
#X connect 0 5 14 0;
#X connect 0 6 15 0;
#X connect 0 7 16 0;
#X connect 1 0 17 0;
#X connect 2 0 17 2;
#X connect 3 0 17 4;
#X connect 4 0 17 6;
#X connect 5 0 17 8;
#X connect 6 0 17 10;
#X connect 7 0 17 12;
#X connect 8 0 17 14;
#X connect 9 0 17 1;
#X connect 10 0 17 3;
#X connect 11 0 17 5;
#X connect 12 0 17 7;
#X connect 13 0 17 9;
#X connect 14 0 17 11;
#X connect 15 0 17 13;
#X connect 16 0 17 15;
#X connect 17 0 18 0;
#X connect 18 0 20 0;
#X connect 19 0 0 0;
#X connect 21 0 1 0;
#X connect 22 0 2 0;
#X connect 23 0 3 0;
#X connect 24 0 4 0;
#X connect 25 0 5 0;
#X connect 26 0 6 0;
#X connect 27 0 7 0;
#X connect 28 0 8 0;
#X coords 0 300 1 299 200 15 0;
#X restore 319 160 pd adrowtop;
#X obj 128 163 tgl 15 0 empty empty empty 17 7 0 10 -262144 -1 -1 0
1;
#X obj 146 163 tgl 15 0 empty empty empty 17 7 0 10 -262144 -1 -1 0
1;
#X obj 164 163 tgl 15 0 empty empty empty 17 7 0 10 -262144 -1 -1 1
1;
#X obj 182 163 tgl 15 0 empty empty empty 17 7 0 10 -262144 -1 -1 0
1;
#X obj 200 163 tgl 15 0 empty empty empty 17 7 0 10 -262144 -1 -1 0
1;
#X obj 218 163 tgl 15 0 empty empty empty 17 7 0 10 -262144 -1 -1 0
1;
#X obj 236 163 tgl 15 0 empty empty empty 17 7 0 10 -262144 -1 -1 1
1;
#X obj 255 163 tgl 15 0 empty empty empty 17 7 0 10 -262144 -1 -1 0
1;
#X obj 128 182 tgl 15 0 empty empty empty 17 7 0 10 -262144 -1 -1 0
1;
#X obj 146 182 tgl 15 0 empty empty empty 17 7 0 10 -262144 -1 -1 0
1;
#X obj 164 182 tgl 15 0 empty empty empty 17 7 0 10 -262144 -1 -1 0
1;
#X obj 182 182 tgl 15 0 empty empty empty 17 7 0 10 -262144 -1 -1 0
1;
#X obj 200 182 tgl 15 0 empty empty empty 17 7 0 10 -262144 -1 -1 0
1;
#X obj 218 182 tgl 15 0 empty empty empty 17 7 0 10 -262144 -1 -1 0
1;
#X obj 236 182 tgl 15 0 empty empty empty 17 7 0 10 -262144 -1 -1 0
1;
#X obj 255 182 tgl 15 0 empty empty empty 17 7 0 10 -262144 -1 -1 0
1;
#N canvas 116 285 450 300 adrowtop 0;
#X obj 63 47 select 0 1 2 3 4 5 6 7;
#X obj 253 77 tgl 15 0 empty empty empty 17 7 0 10 -262144 -1 -1 0
1;
#X obj 271 77 tgl 15 0 empty empty empty 17 7 0 10 -262144 -1 -1 0
1;
#X obj 289 77 tgl 15 0 empty empty empty 17 7 0 10 -262144 -1 -1 1
1;
#X obj 307 77 tgl 15 0 empty empty empty 17 7 0 10 -262144 -1 -1 0
1;
#X obj 325 77 tgl 15 0 empty empty empty 17 7 0 10 -262144 -1 -1 0
1;
#X obj 343 77 tgl 15 0 empty empty empty 17 7 0 10 -262144 -1 -1 0
1;
#X obj 361 77 tgl 15 0 empty empty empty 17 7 0 10 -262144 -1 -1 1
1;
#X obj 379 77 tgl 15 0 empty empty empty 17 7 0 10 -262144 -1 -1 0
1;
#X obj 61 75 bng 15 250 50 0 empty empty empty 17 7 0 10 -262144 -1
-1;
#X obj 78 75 bng 15 250 50 0 empty empty empty 17 7 0 10 -262144 -1
-1;
#X obj 95 75 bng 15 250 50 0 empty empty empty 17 7 0 10 -262144 -1
-1;
#X obj 112 75 bng 15 250 50 0 empty empty empty 17 7 0 10 -262144 -1
-1;
#X obj 129 75 bng 15 250 50 0 empty empty empty 17 7 0 10 -262144 -1
-1;
#X obj 146 75 bng 15 250 50 0 empty empty empty 17 7 0 10 -262144 -1
-1;
#X obj 163 75 bng 15 250 50 0 empty empty empty 17 7 0 10 -262144 -1
-1;
#X obj 181 75 bng 15 250 50 0 empty empty empty 17 7 0 10 -262144 -1
-1;
#N canvas 21 131 592 330 adrow 0;
#X floatatom 19 82 5 0 0 0 - - -, f 5;
#X obj 19 104 f;
#X obj 19 125 == 1;
#X obj 19 146 sel 0 1;
#X obj 38 168 bng 15 250 50 0 empty empty empty 17 7 0 10 -262144 -1
-1;
#X floatatom 72 82 5 0 0 0 - - -, f 5;
#X obj 72 104 f;
#X obj 72 125 == 1;
#X obj 72 146 sel 0 1;
#X obj 91 168 bng 15 250 50 0 empty empty empty 17 7 0 10 -262144 -1
-1;
#X floatatom 123 82 5 0 0 0 - - -, f 5;
#X obj 123 104 f;
#X obj 123 125 == 1;
#X obj 123 146 sel 0 1;
#X obj 142 168 bng 15 250 50 0 empty empty empty 17 7 0 10 -262144
-1 -1;
#X floatatom 176 82 5 0 0 0 - - -, f 5;
#X obj 176 104 f;
#X obj 176 125 == 1;
#X obj 176 146 sel 0 1;
#X obj 195 168 bng 15 250 50 0 empty empty empty 17 7 0 10 -262144
-1 -1;
#X floatatom 226 82 5 0 0 0 - - -, f 5;
#X obj 226 104 f;
#X obj 226 125 == 1;
#X obj 226 146 sel 0 1;
#X obj 245 168 bng 15 250 50 0 empty empty empty 17 7 0 10 -262144
-1 -1;
#X floatatom 279 82 5 0 0 0 - - -, f 5;
#X obj 279 104 f;
#X obj 279 125 == 1;
#X obj 279 146 sel 0 1;
#X obj 298 168 bng 15 250 50 0 empty empty empty 17 7 0 10 -262144
-1 -1;
#X floatatom 330 82 5 0 0 0 - - -, f 5;
#X obj 330 104 f;
#X obj 330 125 == 1;
#X obj 330 146 sel 0 1;
#X obj 349 168 bng 15 250 50 0 empty empty empty 17 7 0 10 -262144
-1 -1;
#X floatatom 383 82 5 0 0 0 - - -, f 5;
#X obj 383 104 f;
#X obj 383 125 == 1;
#X obj 383 146 sel 0 1;
#X obj 402 168 bng 15 250 50 0 empty empty empty 17 7 0 10 -262144
-1 -1;
#X obj 19 29 inlet;
#X obj 155 224 outlet;
#X obj 68 29 inlet;
#X obj 120 29 inlet;
#X obj 174 29 inlet;
#X obj 224 29 inlet;
#X obj 271 29 inlet;
#X obj 322 29 inlet;
#X obj 372 29 inlet;
#X obj 47 7 inlet;
#X obj 96 7 inlet;
#X obj 148 7 inlet;
#X obj 202 7 inlet;
#X obj 252 7 inlet;
#X obj 299 7 inlet;
#X obj 350 7 inlet;
#X obj 400 7 inlet, f 45;
#X connect 0 0 1 0;
#X connect 1 0 2 0;
#X connect 2 0 3 0;
#X connect 3 1 4 0;
#X connect 4 0 41 0;
#X connect 5 0 6 0;
#X connect 6 0 7 0;
#X connect 7 0 8 0;
#X connect 8 1 9 0;
#X connect 9 0 41 0;
#X connect 10 0 11 0;
#X connect 11 0 12 0;
#X connect 12 0 13 0;
#X connect 13 1 14 0;
#X connect 14 0 41 0;
#X connect 15 0 16 0;
#X connect 16 0 17 0;
#X connect 17 0 18 0;
#X connect 18 1 19 0;
#X connect 19 0 41 0;
#X connect 20 0 21 0;
#X connect 21 0 22 0;
#X connect 22 0 23 0;
#X connect 23 1 24 0;
#X connect 24 0 41 0;
#X connect 25 0 26 0;
#X connect 26 0 27 0;
#X connect 27 0 28 0;
#X connect 28 1 29 0;
#X connect 29 0 41 0;
#X connect 30 0 31 0;
#X connect 31 0 32 0;
#X connect 32 0 33 0;
#X connect 33 1 34 0;
#X connect 34 0 41 0;
#X connect 35 0 36 0;
#X connect 36 0 37 0;
#X connect 37 0 38 0;
#X connect 38 1 39 0;
#X connect 39 0 41 0;
#X connect 40 0 0 0;
#X connect 42 0 5 0;
#X connect 43 0 10 0;
#X connect 44 0 15 0;
#X connect 45 0 20 0;
#X connect 46 0 25 0;
#X connect 47 0 30 0;
#X connect 48 0 35 0;
#X connect 49 0 1 0;
#X connect 50 0 6 0;
#X connect 51 0 11 0;
#X connect 52 0 16 0;
#X connect 53 0 21 0;
#X connect 54 0 26 0;
#X connect 55 0 31 0;
#X connect 56 0 36 0;
#X restore 68 176 pd adrow;
#X obj 68 207 bng 15 250 50 0 empty empty empty 17 7 0 10 -262144 -1
-1;
#X obj 64 24 inlet;
#X obj 67 228 outlet, f 8;
#X obj 158 24 inlet;
#X obj 192 24 inlet;
#X obj 226 24 inlet;
#X obj 260 24 inlet;
#X obj 294 24 inlet;
#X obj 328 24 inlet;
#X obj 362 24 inlet;
#X obj 396 24 inlet, f 31;
#X connect 0 0 9 0;
#X connect 0 1 10 0;
#X connect 0 2 11 0;
#X connect 0 3 12 0;
#X connect 0 4 13 0;
#X connect 0 5 14 0;
#X connect 0 6 15 0;
#X connect 0 7 16 0;
#X connect 1 0 17 0;
#X connect 2 0 17 2;
#X connect 3 0 17 4;
#X connect 4 0 17 6;
#X connect 5 0 17 8;
#X connect 6 0 17 10;
#X connect 7 0 17 12;
#X connect 8 0 17 14;
#X connect 9 0 17 1;
#X connect 10 0 17 3;
#X connect 11 0 17 5;
#X connect 12 0 17 7;
#X connect 13 0 17 9;
#X connect 14 0 17 11;
#X connect 15 0 17 13;
#X connect 16 0 17 15;
#X connect 17 0 18 0;
#X connect 18 0 20 0;
#X connect 19 0 0 0;
#X connect 21 0 1 0;
#X connect 22 0 2 0;
#X connect 23 0 3 0;
#X connect 24 0 4 0;
#X connect 25 0 5 0;
#X connect 26 0 6 0;
#X connect 27 0 7 0;
#X connect 28 0 8 0;
#X coords 0 300 1 299 200 15 0;
#X restore 319 178 pd adrowtop;
#N canvas 116 285 450 300 adrowtop 0;
#X obj 63 47 select 0 1 2 3 4 5 6 7;
#X obj 253 77 tgl 15 0 empty empty empty 17 7 0 10 -262144 -1 -1 0
1;
#X obj 271 77 tgl 15 0 empty empty empty 17 7 0 10 -262144 -1 -1 0
1;
#X obj 289 77 tgl 15 0 empty empty empty 17 7 0 10 -262144 -1 -1 0
1;
#X obj 307 77 tgl 15 0 empty empty empty 17 7 0 10 -262144 -1 -1 0
1;
#X obj 325 77 tgl 15 0 empty empty empty 17 7 0 10 -262144 -1 -1 0
1;
#X obj 343 77 tgl 15 0 empty empty empty 17 7 0 10 -262144 -1 -1 0
1;
#X obj 361 77 tgl 15 0 empty empty empty 17 7 0 10 -262144 -1 -1 0
1;
#X obj 379 77 tgl 15 0 empty empty empty 17 7 0 10 -262144 -1 -1 0
1;
#X obj 61 75 bng 15 250 50 0 empty empty empty 17 7 0 10 -262144 -1
-1;
#X obj 78 75 bng 15 250 50 0 empty empty empty 17 7 0 10 -262144 -1
-1;
#X obj 95 75 bng 15 250 50 0 empty empty empty 17 7 0 10 -262144 -1
-1;
#X obj 112 75 bng 15 250 50 0 empty empty empty 17 7 0 10 -262144 -1
-1;
#X obj 129 75 bng 15 250 50 0 empty empty empty 17 7 0 10 -262144 -1
-1;
#X obj 146 75 bng 15 250 50 0 empty empty empty 17 7 0 10 -262144 -1
-1;
#X obj 163 75 bng 15 250 50 0 empty empty empty 17 7 0 10 -262144 -1
-1;
#X obj 181 75 bng 15 250 50 0 empty empty empty 17 7 0 10 -262144 -1
-1;
#N canvas 21 131 592 330 adrow 0;
#X floatatom 19 82 5 0 0 0 - - -, f 5;
#X obj 19 104 f;
#X obj 19 125 == 1;
#X obj 19 146 sel 0 1;
#X obj 38 168 bng 15 250 50 0 empty empty empty 17 7 0 10 -262144 -1
-1;
#X floatatom 72 82 5 0 0 0 - - -, f 5;
#X obj 72 104 f;
#X obj 72 125 == 1;
#X obj 72 146 sel 0 1;
#X obj 91 168 bng 15 250 50 0 empty empty empty 17 7 0 10 -262144 -1
-1;
#X floatatom 123 82 5 0 0 0 - - -, f 5;
#X obj 123 104 f;
#X obj 123 125 == 1;
#X obj 123 146 sel 0 1;
#X obj 142 168 bng 15 250 50 0 empty empty empty 17 7 0 10 -262144
-1 -1;
#X floatatom 176 82 5 0 0 0 - - -, f 5;
#X obj 176 104 f;
#X obj 176 125 == 1;
#X obj 176 146 sel 0 1;
#X obj 195 168 bng 15 250 50 0 empty empty empty 17 7 0 10 -262144
-1 -1;
#X floatatom 226 82 5 0 0 0 - - -, f 5;
#X obj 226 104 f;
#X obj 226 125 == 1;
#X obj 226 146 sel 0 1;
#X obj 245 168 bng 15 250 50 0 empty empty empty 17 7 0 10 -262144
-1 -1;
#X floatatom 279 82 5 0 0 0 - - -, f 5;
#X obj 279 104 f;
#X obj 279 125 == 1;
#X obj 279 146 sel 0 1;
#X obj 298 168 bng 15 250 50 0 empty empty empty 17 7 0 10 -262144
-1 -1;
#X floatatom 330 82 5 0 0 0 - - -, f 5;
#X obj 330 104 f;
#X obj 330 125 == 1;
#X obj 330 146 sel 0 1;
#X obj 349 168 bng 15 250 50 0 empty empty empty 17 7 0 10 -262144
-1 -1;
#X floatatom 383 82 5 0 0 0 - - -, f 5;
#X obj 383 104 f;
#X obj 383 125 == 1;
#X obj 383 146 sel 0 1;
#X obj 402 168 bng 15 250 50 0 empty empty empty 17 7 0 10 -262144
-1 -1;
#X obj 19 29 inlet;
#X obj 155 224 outlet;
#X obj 68 29 inlet;
#X obj 120 29 inlet;
#X obj 174 29 inlet;
#X obj 224 29 inlet;
#X obj 271 29 inlet;
#X obj 322 29 inlet;
#X obj 372 29 inlet;
#X obj 47 7 inlet;
#X obj 96 7 inlet;
#X obj 148 7 inlet;
#X obj 202 7 inlet;
#X obj 252 7 inlet;
#X obj 299 7 inlet;
#X obj 350 7 inlet;
#X obj 400 7 inlet, f 45;
#X connect 0 0 1 0;
#X connect 1 0 2 0;
#X connect 2 0 3 0;
#X connect 3 1 4 0;
#X connect 4 0 41 0;
#X connect 5 0 6 0;
#X connect 6 0 7 0;
#X connect 7 0 8 0;
#X connect 8 1 9 0;
#X connect 9 0 41 0;
#X connect 10 0 11 0;
#X connect 11 0 12 0;
#X connect 12 0 13 0;
#X connect 13 1 14 0;
#X connect 14 0 41 0;
#X connect 15 0 16 0;
#X connect 16 0 17 0;
#X connect 17 0 18 0;
#X connect 18 1 19 0;
#X connect 19 0 41 0;
#X connect 20 0 21 0;
#X connect 21 0 22 0;
#X connect 22 0 23 0;
#X connect 23 1 24 0;
#X connect 24 0 41 0;
#X connect 25 0 26 0;
#X connect 26 0 27 0;
#X connect 27 0 28 0;
#X connect 28 1 29 0;
#X connect 29 0 41 0;
#X connect 30 0 31 0;
#X connect 31 0 32 0;
#X connect 32 0 33 0;
#X connect 33 1 34 0;
#X connect 34 0 41 0;
#X connect 35 0 36 0;
#X connect 36 0 37 0;
#X connect 37 0 38 0;
#X connect 38 1 39 0;
#X connect 39 0 41 0;
#X connect 40 0 0 0;
#X connect 42 0 5 0;
#X connect 43 0 10 0;
#X connect 44 0 15 0;
#X connect 45 0 20 0;
#X connect 46 0 25 0;
#X connect 47 0 30 0;
#X connect 48 0 35 0;
#X connect 49 0 1 0;
#X connect 50 0 6 0;
#X connect 51 0 11 0;
#X connect 52 0 16 0;
#X connect 53 0 21 0;
#X connect 54 0 26 0;
#X connect 55 0 31 0;
#X connect 56 0 36 0;
#X restore 68 176 pd adrow;
#X obj 68 207 bng 15 250 50 0 empty empty empty 17 7 0 10 -262144 -1
-1;
#X obj 64 24 inlet;
#X obj 67 228 outlet, f 8;
#X obj 158 24 inlet;
#X obj 192 24 inlet;
#X obj 226 24 inlet;
#X obj 260 24 inlet;
#X obj 294 24 inlet;
#X obj 328 24 inlet;
#X obj 362 24 inlet;
#X obj 396 24 inlet, f 31;
#X connect 0 0 9 0;
#X connect 0 1 10 0;
#X connect 0 2 11 0;
#X connect 0 3 12 0;
#X connect 0 4 13 0;
#X connect 0 5 14 0;
#X connect 0 6 15 0;
#X connect 0 7 16 0;
#X connect 1 0 17 0;
#X connect 2 0 17 2;
#X connect 3 0 17 4;
#X connect 4 0 17 6;
#X connect 5 0 17 8;
#X connect 6 0 17 10;
#X connect 7 0 17 12;
#X connect 8 0 17 14;
#X connect 9 0 17 1;
#X connect 10 0 17 3;
#X connect 11 0 17 5;
#X connect 12 0 17 7;
#X connect 13 0 17 9;
#X connect 14 0 17 11;
#X connect 15 0 17 13;
#X connect 16 0 17 15;
#X connect 17 0 18 0;
#X connect 18 0 20 0;
#X connect 19 0 0 0;
#X connect 21 0 1 0;
#X connect 22 0 2 0;
#X connect 23 0 3 0;
#X connect 24 0 4 0;
#X connect 25 0 5 0;
#X connect 26 0 6 0;
#X connect 27 0 7 0;
#X connect 28 0 8 0;
#X coords 0 300 1 299 200 15 0;
#X restore 319 197 pd adrowtop;
#N canvas 116 285 450 300 adrowtop 0;
#X obj 63 47 select 0 1 2 3 4 5 6 7;
#X obj 253 77 tgl 15 0 empty empty empty 17 7 0 10 -262144 -1 -1 0
1;
#X obj 271 77 tgl 15 0 empty empty empty 17 7 0 10 -262144 -1 -1 0
1;
#X obj 289 77 tgl 15 0 empty empty empty 17 7 0 10 -262144 -1 -1 0
1;
#X obj 307 77 tgl 15 0 empty empty empty 17 7 0 10 -262144 -1 -1 0
1;
#X obj 325 77 tgl 15 0 empty empty empty 17 7 0 10 -262144 -1 -1 0
1;
#X obj 343 77 tgl 15 0 empty empty empty 17 7 0 10 -262144 -1 -1 0
1;
#X obj 361 77 tgl 15 0 empty empty empty 17 7 0 10 -262144 -1 -1 0
1;
#X obj 379 77 tgl 15 0 empty empty empty 17 7 0 10 -262144 -1 -1 0
1;
#X obj 61 75 bng 15 250 50 0 empty empty empty 17 7 0 10 -262144 -1
-1;
#X obj 78 75 bng 15 250 50 0 empty empty empty 17 7 0 10 -262144 -1
-1;
#X obj 95 75 bng 15 250 50 0 empty empty empty 17 7 0 10 -262144 -1
-1;
#X obj 112 75 bng 15 250 50 0 empty empty empty 17 7 0 10 -262144 -1
-1;
#X obj 129 75 bng 15 250 50 0 empty empty empty 17 7 0 10 -262144 -1
-1;
#X obj 146 75 bng 15 250 50 0 empty empty empty 17 7 0 10 -262144 -1
-1;
#X obj 163 75 bng 15 250 50 0 empty empty empty 17 7 0 10 -262144 -1
-1;
#X obj 181 75 bng 15 250 50 0 empty empty empty 17 7 0 10 -262144 -1
-1;
#N canvas 21 131 592 330 adrow 0;
#X floatatom 19 82 5 0 0 0 - - -, f 5;
#X obj 19 104 f;
#X obj 19 125 == 1;
#X obj 19 146 sel 0 1;
#X obj 38 168 bng 15 250 50 0 empty empty empty 17 7 0 10 -262144 -1
-1;
#X floatatom 72 82 5 0 0 0 - - -, f 5;
#X obj 72 104 f;
#X obj 72 125 == 1;
#X obj 72 146 sel 0 1;
#X obj 91 168 bng 15 250 50 0 empty empty empty 17 7 0 10 -262144 -1
-1;
#X floatatom 123 82 5 0 0 0 - - -, f 5;
#X obj 123 104 f;
#X obj 123 125 == 1;
#X obj 123 146 sel 0 1;
#X obj 142 168 bng 15 250 50 0 empty empty empty 17 7 0 10 -262144
-1 -1;
#X floatatom 176 82 5 0 0 0 - - -, f 5;
#X obj 176 104 f;
#X obj 176 125 == 1;
#X obj 176 146 sel 0 1;
#X obj 195 168 bng 15 250 50 0 empty empty empty 17 7 0 10 -262144
-1 -1;
#X floatatom 226 82 5 0 0 0 - - -, f 5;
#X obj 226 104 f;
#X obj 226 125 == 1;
#X obj 226 146 sel 0 1;
#X obj 245 168 bng 15 250 50 0 empty empty empty 17 7 0 10 -262144
-1 -1;
#X floatatom 279 82 5 0 0 0 - - -, f 5;
#X obj 279 104 f;
#X obj 279 125 == 1;
#X obj 279 146 sel 0 1;
#X obj 298 168 bng 15 250 50 0 empty empty empty 17 7 0 10 -262144
-1 -1;
#X floatatom 330 82 5 0 0 0 - - -, f 5;
#X obj 330 104 f;
#X obj 330 125 == 1;
#X obj 330 146 sel 0 1;
#X obj 349 168 bng 15 250 50 0 empty empty empty 17 7 0 10 -262144
-1 -1;
#X floatatom 383 82 5 0 0 0 - - -, f 5;
#X obj 383 104 f;
#X obj 383 125 == 1;
#X obj 383 146 sel 0 1;
#X obj 402 168 bng 15 250 50 0 empty empty empty 17 7 0 10 -262144
-1 -1;
#X obj 19 29 inlet;
#X obj 155 224 outlet;
#X obj 68 29 inlet;
#X obj 120 29 inlet;
#X obj 174 29 inlet;
#X obj 224 29 inlet;
#X obj 271 29 inlet;
#X obj 322 29 inlet;
#X obj 372 29 inlet;
#X obj 47 7 inlet;
#X obj 96 7 inlet;
#X obj 148 7 inlet;
#X obj 202 7 inlet;
#X obj 252 7 inlet;
#X obj 299 7 inlet;
#X obj 350 7 inlet;
#X obj 400 7 inlet, f 45;
#X connect 0 0 1 0;
#X connect 1 0 2 0;
#X connect 2 0 3 0;
#X connect 3 1 4 0;
#X connect 4 0 41 0;
#X connect 5 0 6 0;
#X connect 6 0 7 0;
#X connect 7 0 8 0;
#X connect 8 1 9 0;
#X connect 9 0 41 0;
#X connect 10 0 11 0;
#X connect 11 0 12 0;
#X connect 12 0 13 0;
#X connect 13 1 14 0;
#X connect 14 0 41 0;
#X connect 15 0 16 0;
#X connect 16 0 17 0;
#X connect 17 0 18 0;
#X connect 18 1 19 0;
#X connect 19 0 41 0;
#X connect 20 0 21 0;
#X connect 21 0 22 0;
#X connect 22 0 23 0;
#X connect 23 1 24 0;
#X connect 24 0 41 0;
#X connect 25 0 26 0;
#X connect 26 0 27 0;
#X connect 27 0 28 0;
#X connect 28 1 29 0;
#X connect 29 0 41 0;
#X connect 30 0 31 0;
#X connect 31 0 32 0;
#X connect 32 0 33 0;
#X connect 33 1 34 0;
#X connect 34 0 41 0;
#X connect 35 0 36 0;
#X connect 36 0 37 0;
#X connect 37 0 38 0;
#X connect 38 1 39 0;
#X connect 39 0 41 0;
#X connect 40 0 0 0;
#X connect 42 0 5 0;
#X connect 43 0 10 0;
#X connect 44 0 15 0;
#X connect 45 0 20 0;
#X connect 46 0 25 0;
#X connect 47 0 30 0;
#X connect 48 0 35 0;
#X connect 49 0 1 0;
#X connect 50 0 6 0;
#X connect 51 0 11 0;
#X connect 52 0 16 0;
#X connect 53 0 21 0;
#X connect 54 0 26 0;
#X connect 55 0 31 0;
#X connect 56 0 36 0;
#X restore 68 176 pd adrow;
#X obj 68 207 bng 15 250 50 0 empty empty empty 17 7 0 10 -262144 -1
-1;
#X obj 64 24 inlet;
#X obj 67 228 outlet, f 8;
#X obj 158 24 inlet;
#X obj 192 24 inlet;
#X obj 226 24 inlet;
#X obj 260 24 inlet;
#X obj 294 24 inlet;
#X obj 328 24 inlet;
#X obj 362 24 inlet;
#X obj 396 24 inlet, f 31;
#X connect 0 0 9 0;
#X connect 0 1 10 0;
#X connect 0 2 11 0;
#X connect 0 3 12 0;
#X connect 0 4 13 0;
#X connect 0 5 14 0;
#X connect 0 6 15 0;
#X connect 0 7 16 0;
#X connect 1 0 17 0;
#X connect 2 0 17 2;
#X connect 3 0 17 4;
#X connect 4 0 17 6;
#X connect 5 0 17 8;
#X connect 6 0 17 10;
#X connect 7 0 17 12;
#X connect 8 0 17 14;
#X connect 9 0 17 1;
#X connect 10 0 17 3;
#X connect 11 0 17 5;
#X connect 12 0 17 7;
#X connect 13 0 17 9;
#X connect 14 0 17 11;
#X connect 15 0 17 13;
#X connect 16 0 17 15;
#X connect 17 0 18 0;
#X connect 18 0 20 0;
#X connect 19 0 0 0;
#X connect 21 0 1 0;
#X connect 22 0 2 0;
#X connect 23 0 3 0;
#X connect 24 0 4 0;
#X connect 25 0 5 0;
#X connect 26 0 6 0;
#X connect 27 0 7 0;
#X connect 28 0 8 0;
#X coords 0 300 1 299 200 15 0;
#X restore 319 217 pd adrowtop;
#X obj 128 201 tgl 15 0 empty empty empty 17 7 0 10 -262144 -1 -1 0
1;
#X obj 146 201 tgl 15 0 empty empty empty 17 7 0 10 -262144 -1 -1 0
1;
#X obj 164 201 tgl 15 0 empty empty empty 17 7 0 10 -262144 -1 -1 0
1;
#X obj 182 201 tgl 15 0 empty empty empty 17 7 0 10 -262144 -1 -1 0
1;
#X obj 200 201 tgl 15 0 empty empty empty 17 7 0 10 -262144 -1 -1 0
1;
#X obj 218 201 tgl 15 0 empty empty empty 17 7 0 10 -262144 -1 -1 0
1;
#X obj 236 201 tgl 15 0 empty empty empty 17 7 0 10 -262144 -1 -1 0
1;
#X obj 255 201 tgl 15 0 empty empty empty 17 7 0 10 -262144 -1 -1 0
1;
#X obj 128 220 tgl 15 0 empty empty empty 17 7 0 10 -262144 -1 -1 0
1;
#X obj 146 220 tgl 15 0 empty empty empty 17 7 0 10 -262144 -1 -1 0
1;
#X obj 164 220 tgl 15 0 empty empty empty 17 7 0 10 -262144 -1 -1 0
1;
#X obj 182 220 tgl 15 0 empty empty empty 17 7 0 10 -262144 -1 -1 0
1;
#X obj 200 220 tgl 15 0 empty empty empty 17 7 0 10 -262144 -1 -1 0
1;
#X obj 218 220 tgl 15 0 empty empty empty 17 7 0 10 -262144 -1 -1 0
1;
#X obj 236 220 tgl 15 0 empty empty empty 17 7 0 10 -262144 -1 -1 0
1;
#X obj 255 220 tgl 15 0 empty empty empty 17 7 0 10 -262144 -1 -1 0
1;
#N canvas 116 285 450 300 adrowtop 0;
#X obj 63 47 select 0 1 2 3 4 5 6 7;
#X obj 253 77 tgl 15 0 empty empty empty 17 7 0 10 -262144 -1 -1 0
1;
#X obj 271 77 tgl 15 0 empty empty empty 17 7 0 10 -262144 -1 -1 0
1;
#X obj 289 77 tgl 15 0 empty empty empty 17 7 0 10 -262144 -1 -1 0
1;
#X obj 307 77 tgl 15 0 empty empty empty 17 7 0 10 -262144 -1 -1 0
1;
#X obj 325 77 tgl 15 0 empty empty empty 17 7 0 10 -262144 -1 -1 0
1;
#X obj 343 77 tgl 15 0 empty empty empty 17 7 0 10 -262144 -1 -1 0
1;
#X obj 361 77 tgl 15 0 empty empty empty 17 7 0 10 -262144 -1 -1 0
1;
#X obj 379 77 tgl 15 0 empty empty empty 17 7 0 10 -262144 -1 -1 0
1;
#X obj 61 75 bng 15 250 50 0 empty empty empty 17 7 0 10 -262144 -1
-1;
#X obj 78 75 bng 15 250 50 0 empty empty empty 17 7 0 10 -262144 -1
-1;
#X obj 95 75 bng 15 250 50 0 empty empty empty 17 7 0 10 -262144 -1
-1;
#X obj 112 75 bng 15 250 50 0 empty empty empty 17 7 0 10 -262144 -1
-1;
#X obj 129 75 bng 15 250 50 0 empty empty empty 17 7 0 10 -262144 -1
-1;
#X obj 146 75 bng 15 250 50 0 empty empty empty 17 7 0 10 -262144 -1
-1;
#X obj 163 75 bng 15 250 50 0 empty empty empty 17 7 0 10 -262144 -1
-1;
#X obj 181 75 bng 15 250 50 0 empty empty empty 17 7 0 10 -262144 -1
-1;
#N canvas 21 131 592 330 adrow 0;
#X floatatom 19 82 5 0 0 0 - - -, f 5;
#X obj 19 104 f;
#X obj 19 125 == 1;
#X obj 19 146 sel 0 1;
#X obj 38 168 bng 15 250 50 0 empty empty empty 17 7 0 10 -262144 -1
-1;
#X floatatom 72 82 5 0 0 0 - - -, f 5;
#X obj 72 104 f;
#X obj 72 125 == 1;
#X obj 72 146 sel 0 1;
#X obj 91 168 bng 15 250 50 0 empty empty empty 17 7 0 10 -262144 -1
-1;
#X floatatom 123 82 5 0 0 0 - - -, f 5;
#X obj 123 104 f;
#X obj 123 125 == 1;
#X obj 123 146 sel 0 1;
#X obj 142 168 bng 15 250 50 0 empty empty empty 17 7 0 10 -262144
-1 -1;
#X floatatom 176 82 5 0 0 0 - - -, f 5;
#X obj 176 104 f;
#X obj 176 125 == 1;
#X obj 176 146 sel 0 1;
#X obj 195 168 bng 15 250 50 0 empty empty empty 17 7 0 10 -262144
-1 -1;
#X floatatom 226 82 5 0 0 0 - - -, f 5;
#X obj 226 104 f;
#X obj 226 125 == 1;
#X obj 226 146 sel 0 1;
#X obj 245 168 bng 15 250 50 0 empty empty empty 17 7 0 10 -262144
-1 -1;
#X floatatom 279 82 5 0 0 0 - - -, f 5;
#X obj 279 104 f;
#X obj 279 125 == 1;
#X obj 279 146 sel 0 1;
#X obj 298 168 bng 15 250 50 0 empty empty empty 17 7 0 10 -262144
-1 -1;
#X floatatom 330 82 5 0 0 0 - - -, f 5;
#X obj 330 104 f;
#X obj 330 125 == 1;
#X obj 330 146 sel 0 1;
#X obj 349 168 bng 15 250 50 0 empty empty empty 17 7 0 10 -262144
-1 -1;
#X floatatom 383 82 5 0 0 0 - - -, f 5;
#X obj 383 104 f;
#X obj 383 125 == 1;
#X obj 383 146 sel 0 1;
#X obj 402 168 bng 15 250 50 0 empty empty empty 17 7 0 10 -262144
-1 -1;
#X obj 19 29 inlet;
#X obj 155 224 outlet;
#X obj 68 29 inlet;
#X obj 120 29 inlet;
#X obj 174 29 inlet;
#X obj 224 29 inlet;
#X obj 271 29 inlet;
#X obj 322 29 inlet;
#X obj 372 29 inlet;
#X obj 47 7 inlet;
#X obj 96 7 inlet;
#X obj 148 7 inlet;
#X obj 202 7 inlet;
#X obj 252 7 inlet;
#X obj 299 7 inlet;
#X obj 350 7 inlet;
#X obj 400 7 inlet, f 45;
#X connect 0 0 1 0;
#X connect 1 0 2 0;
#X connect 2 0 3 0;
#X connect 3 1 4 0;
#X connect 4 0 41 0;
#X connect 5 0 6 0;
#X connect 6 0 7 0;
#X connect 7 0 8 0;
#X connect 8 1 9 0;
#X connect 9 0 41 0;
#X connect 10 0 11 0;
#X connect 11 0 12 0;
#X connect 12 0 13 0;
#X connect 13 1 14 0;
#X connect 14 0 41 0;
#X connect 15 0 16 0;
#X connect 16 0 17 0;
#X connect 17 0 18 0;
#X connect 18 1 19 0;
#X connect 19 0 41 0;
#X connect 20 0 21 0;
#X connect 21 0 22 0;
#X connect 22 0 23 0;
#X connect 23 1 24 0;
#X connect 24 0 41 0;
#X connect 25 0 26 0;
#X connect 26 0 27 0;
#X connect 27 0 28 0;
#X connect 28 1 29 0;
#X connect 29 0 41 0;
#X connect 30 0 31 0;
#X connect 31 0 32 0;
#X connect 32 0 33 0;
#X connect 33 1 34 0;
#X connect 34 0 41 0;
#X connect 35 0 36 0;
#X connect 36 0 37 0;
#X connect 37 0 38 0;
#X connect 38 1 39 0;
#X connect 39 0 41 0;
#X connect 40 0 0 0;
#X connect 42 0 5 0;
#X connect 43 0 10 0;
#X connect 44 0 15 0;
#X connect 45 0 20 0;
#X connect 46 0 25 0;
#X connect 47 0 30 0;
#X connect 48 0 35 0;
#X connect 49 0 1 0;
#X connect 50 0 6 0;
#X connect 51 0 11 0;
#X connect 52 0 16 0;
#X connect 53 0 21 0;
#X connect 54 0 26 0;
#X connect 55 0 31 0;
#X connect 56 0 36 0;
#X restore 68 176 pd adrow;
#X obj 68 207 bng 15 250 50 0 empty empty empty 17 7 0 10 -262144 -1
-1;
#X obj 64 24 inlet;
#X obj 67 228 outlet, f 8;
#X obj 158 24 inlet;
#X obj 192 24 inlet;
#X obj 226 24 inlet;
#X obj 260 24 inlet;
#X obj 294 24 inlet;
#X obj 328 24 inlet;
#X obj 362 24 inlet;
#X obj 396 24 inlet, f 20;
#X connect 0 0 9 0;
#X connect 0 1 10 0;
#X connect 0 2 11 0;
#X connect 0 3 12 0;
#X connect 0 4 13 0;
#X connect 0 5 14 0;
#X connect 0 6 15 0;
#X connect 0 7 16 0;
#X connect 1 0 17 0;
#X connect 2 0 17 2;
#X connect 3 0 17 4;
#X connect 4 0 17 6;
#X connect 5 0 17 8;
#X connect 6 0 17 10;
#X connect 7 0 17 12;
#X connect 8 0 17 14;
#X connect 9 0 17 1;
#X connect 10 0 17 3;
#X connect 11 0 17 5;
#X connect 12 0 17 7;
#X connect 13 0 17 9;
#X connect 14 0 17 11;
#X connect 15 0 17 13;
#X connect 16 0 17 15;
#X connect 17 0 18 0;
#X connect 18 0 20 0;
#X connect 19 0 0 0;
#X connect 21 0 1 0;
#X connect 22 0 2 0;
#X connect 23 0 3 0;
#X connect 24 0 4 0;
#X connect 25 0 5 0;
#X connect 26 0 6 0;
#X connect 27 0 7 0;
#X connect 28 0 8 0;
#X coords 0 300 1 299 200 15 0;
#X restore 319 235 pd adrowtop;
#X obj 128 238 tgl 15 0 empty empty empty 17 7 0 10 -262144 -1 -1 0
1;
#X obj 146 238 tgl 15 0 empty empty empty 17 7 0 10 -262144 -1 -1 0
1;
#X obj 164 238 tgl 15 0 empty empty empty 17 7 0 10 -262144 -1 -1 0
1;
#X obj 182 238 tgl 15 0 empty empty empty 17 7 0 10 -262144 -1 -1 0
1;
#X obj 200 238 tgl 15 0 empty empty empty 17 7 0 10 -262144 -1 -1 0
1;
#X obj 218 238 tgl 15 0 empty empty empty 17 7 0 10 -262144 -1 -1 0
1;
#X obj 236 238 tgl 15 0 empty empty empty 17 7 0 10 -262144 -1 -1 0
1;
#X obj 255 238 tgl 15 0 empty empty empty 17 7 0 10 -262144 -1 -1 0
1;
#X obj 128 257 tgl 15 0 empty empty empty 17 7 0 10 -262144 -1 -1 0
1;
#X obj 146 257 tgl 15 0 empty empty empty 17 7 0 10 -262144 -1 -1 0
1;
#X obj 164 257 tgl 15 0 empty empty empty 17 7 0 10 -262144 -1 -1 0
1;
#X obj 182 257 tgl 15 0 empty empty empty 17 7 0 10 -262144 -1 -1 0
1;
#X obj 200 257 tgl 15 0 empty empty empty 17 7 0 10 -262144 -1 -1 0
1;
#X obj 218 257 tgl 15 0 empty empty empty 17 7 0 10 -262144 -1 -1 0
1;
#X obj 236 257 tgl 15 0 empty empty empty 17 7 0 10 -262144 -1 -1 0
1;
#X obj 255 257 tgl 15 0 empty empty empty 17 7 0 10 -262144 -1 -1 0
1;
#N canvas 106 277 450 300 adrowtop 0;
#X obj 63 47 select 0 1 2 3 4 5 6 7;
#X obj 253 77 tgl 15 0 empty empty empty 17 7 0 10 -262144 -1 -1 0
1;
#X obj 271 77 tgl 15 0 empty empty empty 17 7 0 10 -262144 -1 -1 0
1;
#X obj 289 77 tgl 15 0 empty empty empty 17 7 0 10 -262144 -1 -1 0
1;
#X obj 307 77 tgl 15 0 empty empty empty 17 7 0 10 -262144 -1 -1 0
1;
#X obj 325 77 tgl 15 0 empty empty empty 17 7 0 10 -262144 -1 -1 0
1;
#X obj 343 77 tgl 15 0 empty empty empty 17 7 0 10 -262144 -1 -1 0
1;
#X obj 361 77 tgl 15 0 empty empty empty 17 7 0 10 -262144 -1 -1 0
1;
#X obj 379 77 tgl 15 0 empty empty empty 17 7 0 10 -262144 -1 -1 0
1;
#X obj 61 75 bng 15 250 50 0 empty empty empty 17 7 0 10 -262144 -1
-1;
#X obj 78 75 bng 15 250 50 0 empty empty empty 17 7 0 10 -262144 -1
-1;
#X obj 95 75 bng 15 250 50 0 empty empty empty 17 7 0 10 -262144 -1
-1;
#X obj 112 75 bng 15 250 50 0 empty empty empty 17 7 0 10 -262144 -1
-1;
#X obj 129 75 bng 15 250 50 0 empty empty empty 17 7 0 10 -262144 -1
-1;
#X obj 146 75 bng 15 250 50 0 empty empty empty 17 7 0 10 -262144 -1
-1;
#X obj 163 75 bng 15 250 50 0 empty empty empty 17 7 0 10 -262144 -1
-1;
#X obj 181 75 bng 15 250 50 0 empty empty empty 17 7 0 10 -262144 -1
-1;
#N canvas 21 131 592 330 adrow 0;
#X floatatom 19 82 5 0 0 0 - - -, f 5;
#X obj 19 104 f;
#X obj 19 125 == 1;
#X obj 19 146 sel 0 1;
#X obj 38 168 bng 15 250 50 0 empty empty empty 17 7 0 10 -262144 -1
-1;
#X floatatom 72 82 5 0 0 0 - - -, f 5;
#X obj 72 104 f;
#X obj 72 125 == 1;
#X obj 72 146 sel 0 1;
#X obj 91 168 bng 15 250 50 0 empty empty empty 17 7 0 10 -262144 -1
-1;
#X floatatom 123 82 5 0 0 0 - - -, f 5;
#X obj 123 104 f;
#X obj 123 125 == 1;
#X obj 123 146 sel 0 1;
#X obj 142 168 bng 15 250 50 0 empty empty empty 17 7 0 10 -262144
-1 -1;
#X floatatom 176 82 5 0 0 0 - - -, f 5;
#X obj 176 104 f;
#X obj 176 125 == 1;
#X obj 176 146 sel 0 1;
#X obj 195 168 bng 15 250 50 0 empty empty empty 17 7 0 10 -262144
-1 -1;
#X floatatom 226 82 5 0 0 0 - - -, f 5;
#X obj 226 104 f;
#X obj 226 125 == 1;
#X obj 226 146 sel 0 1;
#X obj 245 168 bng 15 250 50 0 empty empty empty 17 7 0 10 -262144
-1 -1;
#X floatatom 279 82 5 0 0 0 - - -, f 5;
#X obj 279 104 f;
#X obj 279 125 == 1;
#X obj 279 146 sel 0 1;
#X obj 298 168 bng 15 250 50 0 empty empty empty 17 7 0 10 -262144
-1 -1;
#X floatatom 330 82 5 0 0 0 - - -, f 5;
#X obj 330 104 f;
#X obj 330 125 == 1;
#X obj 330 146 sel 0 1;
#X obj 349 168 bng 15 250 50 0 empty empty empty 17 7 0 10 -262144
-1 -1;
#X floatatom 383 82 5 0 0 0 - - -, f 5;
#X obj 383 104 f;
#X obj 383 125 == 1;
#X obj 383 146 sel 0 1;
#X obj 402 168 bng 15 250 50 0 empty empty empty 17 7 0 10 -262144
-1 -1;
#X obj 19 29 inlet;
#X obj 155 224 outlet;
#X obj 68 29 inlet;
#X obj 120 29 inlet;
#X obj 174 29 inlet;
#X obj 224 29 inlet;
#X obj 271 29 inlet;
#X obj 322 29 inlet;
#X obj 372 29 inlet;
#X obj 47 7 inlet;
#X obj 96 7 inlet;
#X obj 148 7 inlet;
#X obj 202 7 inlet;
#X obj 252 7 inlet;
#X obj 299 7 inlet;
#X obj 350 7 inlet;
#X obj 400 7 inlet, f 45;
#X connect 0 0 1 0;
#X connect 1 0 2 0;
#X connect 2 0 3 0;
#X connect 3 1 4 0;
#X connect 4 0 41 0;
#X connect 5 0 6 0;
#X connect 6 0 7 0;
#X connect 7 0 8 0;
#X connect 8 1 9 0;
#X connect 9 0 41 0;
#X connect 10 0 11 0;
#X connect 11 0 12 0;
#X connect 12 0 13 0;
#X connect 13 1 14 0;
#X connect 14 0 41 0;
#X connect 15 0 16 0;
#X connect 16 0 17 0;
#X connect 17 0 18 0;
#X connect 18 1 19 0;
#X connect 19 0 41 0;
#X connect 20 0 21 0;
#X connect 21 0 22 0;
#X connect 22 0 23 0;
#X connect 23 1 24 0;
#X connect 24 0 41 0;
#X connect 25 0 26 0;
#X connect 26 0 27 0;
#X connect 27 0 28 0;
#X connect 28 1 29 0;
#X connect 29 0 41 0;
#X connect 30 0 31 0;
#X connect 31 0 32 0;
#X connect 32 0 33 0;
#X connect 33 1 34 0;
#X connect 34 0 41 0;
#X connect 35 0 36 0;
#X connect 36 0 37 0;
#X connect 37 0 38 0;
#X connect 38 1 39 0;
#X connect 39 0 41 0;
#X connect 40 0 0 0;
#X connect 42 0 5 0;
#X connect 43 0 10 0;
#X connect 44 0 15 0;
#X connect 45 0 20 0;
#X connect 46 0 25 0;
#X connect 47 0 30 0;
#X connect 48 0 35 0;
#X connect 49 0 1 0;
#X connect 50 0 6 0;
#X connect 51 0 11 0;
#X connect 52 0 16 0;
#X connect 53 0 21 0;
#X connect 54 0 26 0;
#X connect 55 0 31 0;
#X connect 56 0 36 0;
#X restore 68 176 pd adrow;
#X obj 68 207 bng 15 250 50 0 empty empty empty 17 7 0 10 -262144 -1
-1;
#X obj 64 24 inlet;
#X obj 67 228 outlet, f 8;
#X obj 158 24 inlet;
#X obj 192 24 inlet;
#X obj 226 24 inlet;
#X obj 260 24 inlet;
#X obj 294 24 inlet;
#X obj 328 24 inlet;
#X obj 362 24 inlet;
#X obj 396 24 inlet, f 37;
#X connect 0 0 9 0;
#X connect 0 1 10 0;
#X connect 0 2 11 0;
#X connect 0 3 12 0;
#X connect 0 4 13 0;
#X connect 0 5 14 0;
#X connect 0 6 15 0;
#X connect 0 7 16 0;
#X connect 1 0 17 0;
#X connect 2 0 17 2;
#X connect 3 0 17 4;
#X connect 4 0 17 6;
#X connect 5 0 17 8;
#X connect 6 0 17 10;
#X connect 7 0 17 12;
#X connect 8 0 17 14;
#X connect 9 0 17 1;
#X connect 10 0 17 3;
#X connect 11 0 17 5;
#X connect 12 0 17 7;
#X connect 13 0 17 9;
#X connect 14 0 17 11;
#X connect 15 0 17 13;
#X connect 16 0 17 15;
#X connect 17 0 18 0;
#X connect 18 0 20 0;
#X connect 19 0 0 0;
#X connect 21 0 1 0;
#X connect 22 0 2 0;
#X connect 23 0 3 0;
#X connect 24 0 4 0;
#X connect 25 0 5 0;
#X connect 26 0 6 0;
#X connect 27 0 7 0;
#X connect 28 0 8 0;
#X coords 0 300 1 299 200 15 0;
#X restore 319 253 pd adrowtop;
#N canvas 116 285 450 300 adrowtop 0;
#X obj 63 47 select 0 1 2 3 4 5 6 7;
#X obj 253 77 tgl 15 0 empty empty empty 17 7 0 10 -262144 -1 -1 0
1;
#X obj 271 77 tgl 15 0 empty empty empty 17 7 0 10 -262144 -1 -1 0
1;
#X obj 289 77 tgl 15 0 empty empty empty 17 7 0 10 -262144 -1 -1 0
1;
#X obj 307 77 tgl 15 0 empty empty empty 17 7 0 10 -262144 -1 -1 0
1;
#X obj 325 77 tgl 15 0 empty empty empty 17 7 0 10 -262144 -1 -1 0
1;
#X obj 343 77 tgl 15 0 empty empty empty 17 7 0 10 -262144 -1 -1 0
1;
#X obj 361 77 tgl 15 0 empty empty empty 17 7 0 10 -262144 -1 -1 0
1;
#X obj 379 77 tgl 15 0 empty empty empty 17 7 0 10 -262144 -1 -1 0
1;
#X obj 61 75 bng 15 250 50 0 empty empty empty 17 7 0 10 -262144 -1
-1;
#X obj 78 75 bng 15 250 50 0 empty empty empty 17 7 0 10 -262144 -1
-1;
#X obj 95 75 bng 15 250 50 0 empty empty empty 17 7 0 10 -262144 -1
-1;
#X obj 112 75 bng 15 250 50 0 empty empty empty 17 7 0 10 -262144 -1
-1;
#X obj 129 75 bng 15 250 50 0 empty empty empty 17 7 0 10 -262144 -1
-1;
#X obj 146 75 bng 15 250 50 0 empty empty empty 17 7 0 10 -262144 -1
-1;
#X obj 163 75 bng 15 250 50 0 empty empty empty 17 7 0 10 -262144 -1
-1;
#X obj 181 75 bng 15 250 50 0 empty empty empty 17 7 0 10 -262144 -1
-1;
#N canvas 21 131 592 330 adrow 0;
#X floatatom 19 82 5 0 0 0 - - -, f 5;
#X obj 19 104 f;
#X obj 19 125 == 1;
#X obj 19 146 sel 0 1;
#X obj 38 168 bng 15 250 50 0 empty empty empty 17 7 0 10 -262144 -1
-1;
#X floatatom 72 82 5 0 0 0 - - -, f 5;
#X obj 72 104 f;
#X obj 72 125 == 1;
#X obj 72 146 sel 0 1;
#X obj 91 168 bng 15 250 50 0 empty empty empty 17 7 0 10 -262144 -1
-1;
#X floatatom 123 82 5 0 0 0 - - -, f 5;
#X obj 123 104 f;
#X obj 123 125 == 1;
#X obj 123 146 sel 0 1;
#X obj 142 168 bng 15 250 50 0 empty empty empty 17 7 0 10 -262144
-1 -1;
#X floatatom 176 82 5 0 0 0 - - -, f 5;
#X obj 176 104 f;
#X obj 176 125 == 1;
#X obj 176 146 sel 0 1;
#X obj 195 168 bng 15 250 50 0 empty empty empty 17 7 0 10 -262144
-1 -1;
#X floatatom 226 82 5 0 0 0 - - -, f 5;
#X obj 226 104 f;
#X obj 226 125 == 1;
#X obj 226 146 sel 0 1;
#X obj 245 168 bng 15 250 50 0 empty empty empty 17 7 0 10 -262144
-1 -1;
#X floatatom 279 82 5 0 0 0 - - -, f 5;
#X obj 279 104 f;
#X obj 279 125 == 1;
#X obj 279 146 sel 0 1;
#X obj 298 168 bng 15 250 50 0 empty empty empty 17 7 0 10 -262144
-1 -1;
#X floatatom 330 82 5 0 0 0 - - -, f 5;
#X obj 330 104 f;
#X obj 330 125 == 1;
#X obj 330 146 sel 0 1;
#X obj 349 168 bng 15 250 50 0 empty empty empty 17 7 0 10 -262144
-1 -1;
#X floatatom 383 82 5 0 0 0 - - -, f 5;
#X obj 383 104 f;
#X obj 383 125 == 1;
#X obj 383 146 sel 0 1;
#X obj 402 168 bng 15 250 50 0 empty empty empty 17 7 0 10 -262144
-1 -1;
#X obj 19 29 inlet;
#X obj 155 224 outlet;
#X obj 68 29 inlet;
#X obj 120 29 inlet;
#X obj 174 29 inlet;
#X obj 224 29 inlet;
#X obj 271 29 inlet;
#X obj 322 29 inlet;
#X obj 372 29 inlet;
#X obj 47 7 inlet;
#X obj 96 7 inlet;
#X obj 148 7 inlet;
#X obj 202 7 inlet;
#X obj 252 7 inlet;
#X obj 299 7 inlet;
#X obj 350 7 inlet;
#X obj 400 7 inlet, f 45;
#X connect 0 0 1 0;
#X connect 1 0 2 0;
#X connect 2 0 3 0;
#X connect 3 1 4 0;
#X connect 4 0 41 0;
#X connect 5 0 6 0;
#X connect 6 0 7 0;
#X connect 7 0 8 0;
#X connect 8 1 9 0;
#X connect 9 0 41 0;
#X connect 10 0 11 0;
#X connect 11 0 12 0;
#X connect 12 0 13 0;
#X connect 13 1 14 0;
#X connect 14 0 41 0;
#X connect 15 0 16 0;
#X connect 16 0 17 0;
#X connect 17 0 18 0;
#X connect 18 1 19 0;
#X connect 19 0 41 0;
#X connect 20 0 21 0;
#X connect 21 0 22 0;
#X connect 22 0 23 0;
#X connect 23 1 24 0;
#X connect 24 0 41 0;
#X connect 25 0 26 0;
#X connect 26 0 27 0;
#X connect 27 0 28 0;
#X connect 28 1 29 0;
#X connect 29 0 41 0;
#X connect 30 0 31 0;
#X connect 31 0 32 0;
#X connect 32 0 33 0;
#X connect 33 1 34 0;
#X connect 34 0 41 0;
#X connect 35 0 36 0;
#X connect 36 0 37 0;
#X connect 37 0 38 0;
#X connect 38 1 39 0;
#X connect 39 0 41 0;
#X connect 40 0 0 0;
#X connect 42 0 5 0;
#X connect 43 0 10 0;
#X connect 44 0 15 0;
#X connect 45 0 20 0;
#X connect 46 0 25 0;
#X connect 47 0 30 0;
#X connect 48 0 35 0;
#X connect 49 0 1 0;
#X connect 50 0 6 0;
#X connect 51 0 11 0;
#X connect 52 0 16 0;
#X connect 53 0 21 0;
#X connect 54 0 26 0;
#X connect 55 0 31 0;
#X connect 56 0 36 0;
#X restore 68 176 pd adrow;
#X obj 68 207 bng 15 250 50 0 empty empty empty 17 7 0 10 -262144 -1
-1;
#X obj 64 24 inlet;
#X obj 67 228 outlet, f 8;
#X obj 158 24 inlet;
#X obj 192 24 inlet;
#X obj 226 24 inlet;
#X obj 260 24 inlet;
#X obj 294 24 inlet;
#X obj 328 24 inlet;
#X obj 362 24 inlet;
#X obj 396 24 inlet, f 31;
#X connect 0 0 9 0;
#X connect 0 1 10 0;
#X connect 0 2 11 0;
#X connect 0 3 12 0;
#X connect 0 4 13 0;
#X connect 0 5 14 0;
#X connect 0 6 15 0;
#X connect 0 7 16 0;
#X connect 1 0 17 0;
#X connect 2 0 17 2;
#X connect 3 0 17 4;
#X connect 4 0 17 6;
#X connect 5 0 17 8;
#X connect 6 0 17 10;
#X connect 7 0 17 12;
#X connect 8 0 17 14;
#X connect 9 0 17 1;
#X connect 10 0 17 3;
#X connect 11 0 17 5;
#X connect 12 0 17 7;
#X connect 13 0 17 9;
#X connect 14 0 17 11;
#X connect 15 0 17 13;
#X connect 16 0 17 15;
#X connect 17 0 18 0;
#X connect 18 0 20 0;
#X connect 19 0 0 0;
#X connect 21 0 1 0;
#X connect 22 0 2 0;
#X connect 23 0 3 0;
#X connect 24 0 4 0;
#X connect 25 0 5 0;
#X connect 26 0 6 0;
#X connect 27 0 7 0;
#X connect 28 0 8 0;
#X coords 0 300 1 299 200 15 0;
#X restore 319 272 pd adrowtop;
#X obj 336 23 inlet;
#X obj 336 44 route select;
#X floatatom 336 67 5 0 0 0 - - -, f 5;
#X msg 378 67;
#X obj 407 108 select 1 2 3 4 5 6 7 8;
#X obj 407 127 select 9 10 11 12 13 14 15 16;
#X obj 406 145 select 17 18 19 20 21 22 23 24;
#X obj 405 164 select 25 26 27 28 29 30 31 32;
#X obj 405 183 select 33 34 35 36 37 38 39 40;
#X obj 406 201 select 41 42 43 44 45 46 47 48;
#X obj 405 220 select 49 50 51 52 53 54 55 56;
#X obj 404 239 select 57 58 59 60 61 62 63 64;
#X obj 457 335 outlet;
#X obj 457 315 + 1;
#X connect 0 0 1 0;
#X connect 1 0 3 0;
#X connect 1 0 4 0;
#X connect 3 0 1 1;
#X connect 4 0 2 0;
#X connect 4 0 5 0;
#X connect 5 0 7 0;
#X connect 5 0 41 0;
#X connect 5 0 58 0;
#X connect 5 0 59 0;
#X connect 5 0 60 0;
#X connect 5 0 77 0;
#X connect 5 0 95 0;
#X connect 5 0 94 0;
#X connect 5 0 109 0;
#X connect 6 0 17 0;
#X connect 7 0 6 0;
#X connect 8 0 16 0;
#X connect 9 0 19 0;
#X connect 10 0 18 0;
#X connect 11 0 21 0;
#X connect 12 0 20 0;
#X connect 13 0 23 0;
#X connect 14 0 22 0;
#X connect 15 0 0 0;
#X connect 24 0 0 1;
#X connect 25 0 7 1;
#X connect 26 0 7 2;
#X connect 27 0 7 3;
#X connect 28 0 7 4;
#X connect 29 0 7 5;
#X connect 30 0 7 6;
#X connect 31 0 7 7;
#X connect 32 0 7 8;
#X connect 33 0 41 1;
#X connect 34 0 41 2;
#X connect 35 0 41 3;
#X connect 36 0 41 4;
#X connect 37 0 41 5;
#X connect 38 0 41 6;
#X connect 39 0 41 7;
#X connect 40 0 41 8;
#X connect 41 0 8 0;
#X connect 42 0 58 1;
#X connect 43 0 58 2;
#X connect 44 0 58 3;
#X connect 45 0 58 4;
#X connect 46 0 58 5;
#X connect 47 0 58 6;
#X connect 48 0 58 7;
#X connect 49 0 58 8;
#X connect 50 0 59 1;
#X connect 51 0 59 2;
#X connect 52 0 59 3;
#X connect 53 0 59 4;
#X connect 54 0 59 5;
#X connect 55 0 59 6;
#X connect 56 0 59 7;
#X connect 57 0 59 8;
#X connect 58 0 9 0;
#X connect 59 0 10 0;
#X connect 60 0 11 0;
#X connect 61 0 60 1;
#X connect 62 0 60 2;
#X connect 63 0 60 3;
#X connect 64 0 60 4;
#X connect 65 0 60 5;
#X connect 66 0 60 6;
#X connect 67 0 60 7;
#X connect 68 0 60 8;
#X connect 69 0 77 1;
#X connect 70 0 77 2;
#X connect 71 0 77 3;
#X connect 72 0 77 4;
#X connect 73 0 77 5;
#X connect 74 0 77 6;
#X connect 75 0 77 7;
#X connect 76 0 77 8;
#X connect 77 0 12 0;
#X connect 78 0 94 1;
#X connect 79 0 94 2;
#X connect 80 0 94 3;
#X connect 81 0 94 4;
#X connect 82 0 94 5;
#X connect 83 0 94 6;
#X connect 84 0 94 7;
#X connect 85 0 94 8;
#X connect 86 0 95 1;
#X connect 87 0 95 2;
#X connect 88 0 95 3;
#X connect 89 0 95 4;
#X connect 90 0 95 5;
#X connect 91 0 95 6;
#X connect 92 0 95 7;
#X connect 93 0 95 8;
#X connect 94 0 13 0;
#X connect 95 0 14 0;
#X connect 96 0 97 0;
#X connect 97 0 98 0;
#X connect 97 0 99 0;
#X connect 98 0 100 0;
#X connect 98 0 101 0;
#X connect 98 0 102 0;
#X connect 98 0 103 0;
#X connect 98 0 104 0;
#X connect 98 0 105 0;
#X connect 98 0 106 0;
#X connect 98 0 107 0;
#X connect 100 0 25 0;
#X connect 100 1 26 0;
#X connect 100 2 27 0;
#X connect 100 3 28 0;
#X connect 100 4 29 0;
#X connect 100 5 30 0;
#X connect 100 6 31 0;
#X connect 100 7 32 0;
#X connect 101 0 33 0;
#X connect 101 1 34 0;
#X connect 101 2 35 0;
#X connect 101 3 36 0;
#X connect 101 4 37 0;
#X connect 101 5 38 0;
#X connect 101 6 39 0;
#X connect 101 7 40 0;
#X connect 102 0 42 0;
#X connect 102 1 43 0;
#X connect 102 2 44 0;
#X connect 102 3 45 0;
#X connect 102 4 46 0;
#X connect 102 5 47 0;
#X connect 102 6 48 0;
#X connect 102 7 49 0;
#X connect 103 0 50 0;
#X connect 103 1 51 0;
#X connect 103 2 52 0;
#X connect 103 3 53 0;
#X connect 103 4 54 0;
#X connect 103 5 55 0;
#X connect 103 6 56 0;
#X connect 103 7 57 0;
#X connect 104 0 61 0;
#X connect 104 1 62 0;
#X connect 104 2 63 0;
#X connect 104 3 64 0;
#X connect 104 4 65 0;
#X connect 104 5 66 0;
#X connect 104 6 67 0;
#X connect 104 7 68 0;
#X connect 105 0 69 0;
#X connect 105 1 70 0;
#X connect 105 2 71 0;
#X connect 105 3 72 0;
#X connect 105 4 73 0;
#X connect 105 5 74 0;
#X connect 105 6 75 0;
#X connect 105 7 76 0;
#X connect 106 0 78 0;
#X connect 106 1 79 0;
#X connect 106 2 80 0;
#X connect 106 3 81 0;
#X connect 106 4 82 0;
#X connect 106 5 83 0;
#X connect 106 6 84 0;
#X connect 106 7 85 0;
#X connect 107 0 86 0;
#X connect 107 1 87 0;
#X connect 107 2 88 0;
#X connect 107 3 89 0;
#X connect 107 4 90 0;
#X connect 107 5 91 0;
#X connect 107 6 92 0;
#X connect 107 7 93 0;
#X connect 109 0 108 0;
#X coords 0 -1 1 1 200 200 1 100 100;
