#N canvas 723 138 613 613 10;
#X obj 34 557 dac~;
#N canvas 130 238 450 300 input_stage 0;
#X obj 47 54 key;
#X obj 47 99 trigger float float bang;
#X obj 19 208 outlet float;
#X obj 119 208 outlet float;
#X obj 228 210 outlet float;
#X connect 0 0 1 0;
#X connect 1 0 2 0;
#X connect 1 1 3 0;
#X connect 1 2 4 0;
#X restore 47 33 pd input_stage;
#N canvas 67 89 450 300 oscillator_stage 0;
#X obj 47 91 phasor~;
#X obj 53 161 *~ 0.5;
#X obj 98 91 * 0.99;
#X obj 97 114 phasor~;
#X obj 52 30 inlet float;
#X obj 52 244 outlet~ audio;
#X obj 49 61 mtof;
#X connect 0 0 1 0;
#X connect 1 0 5 0;
#X connect 2 0 3 0;
#X connect 3 0 1 0;
#X connect 4 0 6 0;
#X connect 6 0 0 0;
#X connect 6 0 2 0;
#X restore 47 171 pd oscillator_stage;
#N canvas 67 89 450 300 filter_stage 0;
#X obj 44 19 inlet~ audio;
#X obj 74 56 inlet float;
#X obj 45 246 outlet~ audio;
#X obj 45 196 vcf~ 220 3;
#X obj 74 172 line~;
#X obj 74 148 pack 0 300;
#X obj 73 123 * 1.5;
#X obj 75 93 mtof;
#X connect 0 0 3 0;
#X connect 1 0 7 0;
#X connect 3 0 2 0;
#X connect 4 0 3 1;
#X connect 5 0 4 0;
#X connect 6 0 5 0;
#X connect 7 0 6 0;
#X restore 47 283 pd filter_stage;
#N canvas 67 89 450 300 amp_stage 0;
#X obj 31 33 inlet~ audio;
#X obj 32 256 outlet~ audio;
#X obj 32 219 *~;
#X obj 46 193 vline~;
#X msg 114 146 1 150 \, 0.9 150 150 \, 0 1000 500;
#X obj 115 33 inlet float;
#X connect 0 0 2 0;
#X connect 2 0 1 0;
#X connect 3 0 2 1;
#X connect 4 0 3 0;
#X connect 5 0 4 0;
#X restore 46 523 pd amp_stage;
#X connect 1 0 2 0;
#X connect 1 1 3 1;
#X connect 1 2 4 1;
#X connect 2 0 3 0;
#X connect 3 0 4 0;
#X connect 4 0 0 1;
#X connect 4 0 0 0;
