#N canvas 795 298 529 453 10;
#X obj 58 123 mtof;
#X obj 58 146 phasor~;
#X obj 58 171 expr~ ($v1 > 0.5) * 2 - 1;
#X obj 45 258 dac~;
#X obj 59 94 hsl 128 15 0 127 0 0 empty empty empty -2 -8 0 10 -262144
-1 -1 6600 1;
#X connect 0 0 1 0;
#X connect 1 0 2 0;
#X connect 2 0 3 0;
#X connect 2 0 3 1;
#X connect 4 0 0 0;
