#N canvas 838 399 450 300 10;
#X obj 27 249 dac~;
#X obj 27 74 mtof;
#X obj 29 150 osc~;
#X obj 83 114 mtof;
#X obj 79 145 phasor~;
#X obj 38 193 *~;
#X obj 31 49 hsl 128 15 0 127 0 0 empty empty empty -2 -8 0 10 -262144
-1 -1 6300 1;
#X obj 88 89 hsl 128 15 0 127 0 0 empty empty empty -2 -8 0 10 -262144
-1 -1 7900 1;
#X connect 1 0 2 0;
#X connect 2 0 5 0;
#X connect 3 0 4 0;
#X connect 4 0 5 1;
#X connect 5 0 0 1;
#X connect 5 0 0 0;
#X connect 6 0 1 0;
#X connect 7 0 3 0;
