#N canvas 865 157 450 508 10;
#X obj 28 106 timer;
#X floatatom 28 129 5 0 0 0 - - -, f 5;
#X obj 26 86 bng 15 250 50 0 empty empty empty 17 7 0 10 -262144 -1
-1;
#X obj 56 86 bng 15 250 50 0 empty empty empty 17 7 0 10 -262144 -1
-1;
#X obj 116 182 delay 1000;
#X obj 121 226 bng 15 250 50 0 empty empty empty 17 7 0 10 -262144
-1 -1;
#X floatatom 172 161 5 0 0 0 - - -, f 5;
#X msg 108 116 bang;
#X obj 216 39 bng 15 250 50 0 empty empty empty 17 7 0 10 -262144 -1
-1;
#X floatatom 284 89 5 0 0 0 - - -, f 5;
#X floatatom 293 283 5 0 0 0 - - -, f 5;
#X text 301 173 message delay line;
#X obj 59 329 swap;
#X floatatom 43 284 5 0 0 0 - - -, f 5;
#X floatatom 99 287 5 0 0 0 - - -, f 5;
#X floatatom 40 370 5 0 0 0 - - -, f 5;
#X floatatom 96 373 5 0 0 0 - - -, f 5;
#X obj 292 192 pipe 3000;
#X connect 0 0 1 0;
#X connect 2 0 0 0;
#X connect 3 0 0 1;
#X connect 4 0 5 0;
#X connect 6 0 4 1;
#X connect 7 0 4 0;
#X connect 8 0 4 0;
#X connect 9 0 17 0;
#X connect 12 0 15 0;
#X connect 12 1 16 0;
#X connect 13 0 12 0;
#X connect 14 0 12 1;
#X connect 17 0 10 0;
