#N canvas 777 149 589 587 10;
#X obj 18 15 key;
#X obj 192 21 keyup;
#X obj 15 241 mtof;
#X obj 15 264 osc~;
#X obj 41 343 *~;
#X obj 39 385 dac~;
#X floatatom 34 39 5 0 0 0 - - -, f 5;
#X floatatom 201 43 5 0 0 0 - - -, f 5;
#X obj 26 65 bng 15 250 50 0 empty empty empty 17 7 0 10 -262144 -1
-1;
#X obj 180 44 bng 15 250 50 0 empty empty empty 17 7 0 10 -262144 -1
-1;
#X msg 28 85 1;
#X msg 180 64 0;
#X obj 83 238 pack 0 50;
#X msg 127 211 50;
#X obj 81 263 line~;
#X connect 0 0 2 0;
#X connect 0 0 6 0;
#X connect 0 0 8 0;
#X connect 1 0 7 0;
#X connect 1 0 9 0;
#X connect 2 0 3 0;
#X connect 3 0 4 0;
#X connect 4 0 5 0;
#X connect 4 0 5 1;
#X connect 8 0 10 0;
#X connect 8 0 13 0;
#X connect 9 0 11 0;
#X connect 9 0 13 0;
#X connect 10 0 12 0;
#X connect 11 0 12 0;
#X connect 12 0 14 0;
#X connect 13 0 12 1;
#X connect 14 0 4 1;
