#N canvas 685 217 552 433 10;
#X obj 43 158 dac~;
#X obj 43 135 *~;
#X obj 43 55 noise~;
#X obj 43 78 *~ 2;
#X obj 44 109 z~ 64;
#X obj 100 109 limiter~;
#X text 102 79 limiter and z (delay) doesn't work??!!?;
#X connect 1 0 0 0;
#X connect 2 0 3 0;
#X connect 3 0 4 0;
#X connect 4 0 1 0;
