#N canvas 595 132 613 613 10;
#X obj 34 557 dac~;
#N canvas 83 238 450 300 input_stage 0;
#X obj 47 54 key;
#X obj 47 99 trigger float float bang;
#X obj 19 208 outlet float;
#X obj 119 208 outlet float;
#X obj 228 210 outlet float;
#X connect 0 0 1 0;
#X connect 1 0 2 0;
#X connect 1 1 3 0;
#X connect 1 2 4 0;
#X restore 47 33 pd input_stage;
#N canvas 97 264 450 427 oscillator_stage 0;
#X obj 9 14 inlet float;
#X obj 39 399 outlet~ audio;
#X obj 12 36 mtof;
#X floatatom 12 60 5 0 0 0 - - -, f 5;
#X obj 21 117 phasor~;
#X obj 231 118 phasor~;
#X obj 20 216 expr~ $v1 && $v2;
#X obj 229 141 expr~ $v1 > 0.5;
#X obj 134 269 phasor~;
#X obj 135 294 expr~ $v1 > 0.5;
#X floatatom 133 245 5 0 0 0 - - -, f 5;
#X obj 36 338 expr~ $v1 || $v2;
#X obj 21 140 expr~ $v1 > 0.5;
#X obj 23 86 - 2000;
#X obj 266 247 phasor~;
#X obj 266 327 expr~ $v1 > $v2;
#X obj 352 301 abs~;
#X obj 353 273 osc~;
#X obj 352 248 / 100;
#X floatatom 353 222 5 0 0 0 - - -, f 5;
#X obj 39 373 *~ 0.5;
#X connect 0 0 2 0;
#X connect 2 0 3 0;
#X connect 3 0 13 0;
#X connect 3 0 14 0;
#X connect 4 0 12 0;
#X connect 5 0 7 0;
#X connect 6 0 11 0;
#X connect 7 0 6 1;
#X connect 8 0 9 0;
#X connect 9 0 11 1;
#X connect 10 0 8 0;
#X connect 11 0 20 0;
#X connect 12 0 6 0;
#X connect 13 0 4 0;
#X connect 13 0 5 0;
#X connect 14 0 15 0;
#X connect 15 0 20 0;
#X connect 16 0 15 1;
#X connect 17 0 16 0;
#X connect 18 0 17 0;
#X connect 19 0 18 0;
#X connect 20 0 1 0;
#X restore 47 171 pd oscillator_stage;
#N canvas 67 89 450 300 filter_stage 0;
#X obj 44 19 inlet~ audio;
#X obj 74 56 inlet float;
#X obj 45 246 outlet~ audio;
#X obj 45 196 vcf~ 220 3;
#X obj 74 172 line~;
#X obj 74 148 pack 0 300;
#X obj 73 123 * 1.5;
#X obj 75 93 mtof;
#X connect 0 0 3 0;
#X connect 1 0 7 0;
#X connect 3 0 2 0;
#X connect 4 0 3 1;
#X connect 5 0 4 0;
#X connect 6 0 5 0;
#X connect 7 0 6 0;
#X restore 47 283 pd filter_stage;
#N canvas 67 89 450 300 amp_stage 0;
#X obj 31 33 inlet~ audio;
#X obj 32 256 outlet~ audio;
#X obj 32 219 *~;
#X obj 46 193 vline~;
#X msg 114 146 1 150 \, 0.9 150 150 \, 0 1000 500;
#X obj 115 33 inlet float;
#X connect 0 0 2 0;
#X connect 2 0 1 0;
#X connect 3 0 2 1;
#X connect 4 0 3 0;
#X connect 5 0 4 0;
#X restore 46 523 pd amp_stage;
#X connect 1 0 2 0;
#X connect 1 1 3 1;
#X connect 1 2 4 1;
#X connect 2 0 3 0;
#X connect 3 0 4 0;
#X connect 4 0 0 1;
#X connect 4 0 0 0;
