#N canvas 215 113 613 637 10;
#X obj 34 51 openpanel;
#X msg 34 78 read -resize \$1 channelL channelR;
#X obj 34 105 soundfiler;
#X floatatom 42 130 5 0 0 0 - - -, f 5;
#X obj 42 152 s sampleSize;
#X obj 34 224 expr 44100 / $f1;
#X floatatom 43 247 5 0 0 0 - - -, f 5;
#X obj 34 319 phasor~;
#X obj 33 383 *~;
#X obj 48 359 r sampleSize;
#X obj 143 157 hsl 128 15 0 1 0 0 empty empty empty -2 -8 0 10 -262144
-1 -1 4600 1;
#X floatatom 140 178 5 0 0 0 - - -, f 5;
#X msg 72 278 0;
#X msg 101 278 0.5;
#X obj 81 440 snapshot~;
#X obj 27 488 dac~;
#X obj 130 406 metro 50;
#X obj 130 383 tgl 15 0 empty empty empty 17 7 0 10 -262144 -1 -1 0
1;
#X floatatom 81 462 5 0 0 0 - - -, f 5;
#X obj 81 483 /;
#X obj 171 451 r sampleSize;
#X floatatom 81 504 5 0 0 0 - - -, f 5;
#N canvas 0 50 450 250 (subpatch) 0;
#X array channelL 4e+06 float 4;
#X coords 0 1 4e+06 -1 200 140 1;
#X restore 305 219 graph;
#N canvas 0 50 450 250 (subpatch) 0;
#X array channelR 4e+06 float 4;
#X coords 0 1 4e+06 -1 200 140 1;
#X restore 303 381 graph;
#X obj 33 25 bng 15 250 50 0 empty empty empty 17 7 0 10 -262144 -1
-1;
#X obj 373 60 openpanel;
#X obj 372 34 bng 15 250 50 0 empty empty empty 17 7 0 10 -262144 -1
-1;
#X connect 0 0 1 0;
#X connect 1 0 2 0;
#X connect 2 0 3 0;
#X connect 2 0 5 0;
#X connect 3 0 4 0;
#X connect 5 0 6 0;
#X connect 5 0 7 0;
#X connect 7 0 8 0;
#X connect 8 0 14 0;
#X connect 8 0 15 1;
#X connect 8 0 15 0;
#X connect 9 0 8 1;
#X connect 10 0 11 0;
#X connect 11 0 7 0;
#X connect 12 0 7 1;
#X connect 13 0 7 1;
#X connect 14 0 18 0;
#X connect 16 0 14 0;
#X connect 17 0 16 0;
#X connect 18 0 19 0;
#X connect 19 0 21 0;
#X connect 20 0 19 1;
#X connect 24 0 0 0;
#X connect 26 0 25 0;
