#N canvas 807 163 525 565 10;
#X obj 58 59 hsl 128 15 0 127 0 0 empty empty empty -2 -8 0 10 -262144
-1 -1 6300 1;
#X obj 55 79 mtof;
#X obj 55 152 expr~ $v1 > $v2;
#X floatatom 215 71 5 0 0 0 - - -, f 5;
#X obj 218 100 / 100;
#X obj 52 244 dac~;
#X obj 54 105 phasor~;
#X connect 0 0 1 0;
#X connect 1 0 6 0;
#X connect 2 0 5 0;
#X connect 2 0 5 1;
#X connect 3 0 4 0;
#X connect 4 0 2 1;
#X connect 6 0 2 0;
