#N canvas 54 444 686 275 10;
#X obj 87 158 seqbang;
#X obj 136 110 tgl 15 0 empty empty empty 17 7 0 10 -262144 -1 -1 1
1;
#X obj 87 181 bng 15 250 50 0 empty empty empty 17 7 0 10 -262144 -1
-1;
#X obj 105 137 seqbang;
#X obj 154 110 tgl 15 0 empty empty empty 17 7 0 10 -262144 -1 -1 1
1;
#X obj 105 181 bng 15 250 50 0 empty empty empty 17 7 0 10 -262144
-1 -1;
#X obj 136 158 seqbang;
#X obj 172 110 tgl 15 0 empty empty empty 17 7 0 10 -262144 -1 -1 1
1;
#X obj 123 181 bng 15 250 50 0 empty empty empty 17 7 0 10 -262144
-1 -1;
#X obj 154 137 seqbang;
#X obj 190 110 tgl 15 0 empty empty empty 17 7 0 10 -262144 -1 -1 1
1;
#X obj 141 181 bng 15 250 50 0 empty empty empty 17 7 0 10 -262144
-1 -1;
#X obj 170 212 bng 15 250 50 0 empty empty empty 17 7 0 10 -262144
-1 -1;
#X obj 186 158 seqbang;
#X obj 235 110 tgl 15 0 empty empty empty 17 7 0 10 -262144 -1 -1 1
1;
#X obj 186 181 bng 15 250 50 0 empty empty empty 17 7 0 10 -262144
-1 -1;
#X obj 204 137 seqbang;
#X obj 253 110 tgl 15 0 empty empty empty 17 7 0 10 -262144 -1 -1 1
1;
#X obj 204 181 bng 15 250 50 0 empty empty empty 17 7 0 10 -262144
-1 -1;
#X obj 235 158 seqbang;
#X obj 271 110 tgl 15 0 empty empty empty 17 7 0 10 -262144 -1 -1 1
1;
#X obj 222 181 bng 15 250 50 0 empty empty empty 17 7 0 10 -262144
-1 -1;
#X obj 253 136 seqbang;
#X obj 289 110 tgl 15 0 empty empty empty 17 7 0 10 -262144 -1 -1 1
1;
#X obj 240 181 bng 15 250 50 0 empty empty empty 17 7 0 10 -262144
-1 -1;
#X obj 19 25 inlet;
#X obj 57 25 inlet;
#X obj 95 25 inlet;
#X obj 133 25 inlet;
#X obj 171 25 inlet;
#X obj 208 25 inlet;
#X obj 246 25 inlet;
#X obj 284 25 inlet;
#X obj 323 25 inlet;
#X obj 361 25 inlet;
#X obj 399 25 inlet;
#X obj 437 25 inlet;
#X obj 475 25 inlet;
#X obj 512 25 inlet;
#X obj 550 25 inlet;
#X obj 588 25 inlet;
#X obj 170 231 outlet;
#X connect 0 0 2 0;
#X connect 1 0 0 1;
#X connect 2 0 12 0;
#X connect 3 0 5 0;
#X connect 4 0 3 1;
#X connect 5 0 12 0;
#X connect 6 0 8 0;
#X connect 7 0 6 1;
#X connect 8 0 12 0;
#X connect 9 0 11 0;
#X connect 10 0 9 1;
#X connect 11 0 12 0;
#X connect 12 0 41 0;
#X connect 13 0 15 0;
#X connect 14 0 13 1;
#X connect 15 0 12 0;
#X connect 16 0 18 0;
#X connect 17 0 16 1;
#X connect 18 0 12 0;
#X connect 19 0 21 0;
#X connect 20 0 19 1;
#X connect 21 0 12 0;
#X connect 22 0 24 0;
#X connect 23 0 22 1;
#X connect 24 0 12 0;
#X connect 25 0 0 0;
#X connect 26 0 3 0;
#X connect 27 0 6 0;
#X connect 28 0 9 0;
#X connect 29 0 13 0;
#X connect 30 0 16 0;
#X connect 31 0 19 0;
#X connect 32 0 22 0;
#X connect 33 0 1 0;
#X connect 34 0 4 0;
#X connect 35 0 7 0;
#X connect 36 0 10 0;
#X connect 37 0 14 0;
#X connect 38 0 17 0;
#X connect 39 0 20 0;
#X connect 40 0 23 0;
