#N canvas 53 389 623 339 10;
#X obj 54 140 readsf~;
#X obj 47 226 dac~;
#X obj 16 23 openpanel;
#X msg 39 112 1;
#X msg 71 116 0;
#X obj 18 5 bng 15 250 50 0 empty empty empty 17 7 0 10 -262144 -1
-1;
#X obj 16 46 print;
#X obj 232 186 readsf~;
#X msg 218 161 1;
#X msg 249 161 0;
#X obj 54 164 *~ 0.9;
#X msg 272 108 open /home/xt53/Desktop/music/adriano-on-my-side.wav
;
#X msg 70 66 open /home/xt53/Desktop/music/andres-new-for.wav;
#X connect 0 0 10 0;
#X connect 2 0 6 0;
#X connect 3 0 0 0;
#X connect 4 0 0 0;
#X connect 5 0 2 0;
#X connect 7 0 10 0;
#X connect 8 0 7 0;
#X connect 9 0 7 0;
#X connect 10 0 1 1;
#X connect 10 0 1 0;
#X connect 11 0 7 0;
#X connect 12 0 0 0;
