#N canvas 729 209 601 511 10;
#X obj 44 105 mtof;
#X obj 44 134 phasor~;
#X obj 44 214 expr~ $v1 > $v2;
#X obj 130 188 abs~;
#X obj 131 160 osc~;
#X obj 130 135 / 100;
#X floatatom 131 109 5 0 0 0 - - -, f 5;
#X obj 38 285 dac~;
#X obj 47 41 hsl 128 15 0 127 0 0 empty empty empty -2 -8 0 10 -262144
-1 -1 7000 1;
#X connect 0 0 1 0;
#X connect 1 0 2 0;
#X connect 2 0 7 1;
#X connect 2 0 7 0;
#X connect 3 0 2 1;
#X connect 4 0 3 0;
#X connect 5 0 4 0;
#X connect 6 0 5 0;
#X connect 8 0 0 0;
