#N canvas 20 349 526 410 10;
#X obj 24 11 loadbang;
#X obj 22 70 t b b;
#X msg 23 129 1 10;
#X msg 64 108 0;
#X obj 95 108 del 10;
#X obj 23 163 noise~;
#X obj 77 164 line~;
#X obj 47 206 *~;
#X obj 98 134 0 10;
#X obj 216 98 osc~ 0.54;
#X obj 215 122 *~ 10;
#X obj 214 147 +~ 15;
#X obj 213 173 vd~ DEL;
#X obj 213 196 *~ 0.5;
#X obj 314 122 *~ 10;
#X obj 313 147 +~ 15;
#X obj 312 173 vd~ DEL;
#X obj 312 196 *~ 0.5;
#X obj 315 98 osc~ 0.21;
#X obj 260 274 dac~;
#X floatatom 365 57 5 0 0 0 - - -, f 5;
#X floatatom 265 62 5 0 0 0 - - -, f 5;
#X obj 22 45 metro 300;
#X obj 95 18 bng 15 250 50 0 empty empty empty 17 7 0 10 -262144 -1
-1;
#X obj 21 351 delwrite~ DEL 5000;
#X connect 0 0 22 0;
#X connect 1 0 2 0;
#X connect 1 0 4 0;
#X connect 1 1 3 0;
#X connect 2 0 6 0;
#X connect 3 0 6 0;
#X connect 4 0 8 0;
#X connect 5 0 7 0;
#X connect 6 0 7 1;
#X connect 7 0 24 0;
#X connect 8 0 6 0;
#X connect 9 0 10 0;
#X connect 10 0 11 0;
#X connect 11 0 12 0;
#X connect 12 0 13 0;
#X connect 12 0 19 0;
#X connect 13 0 24 0;
#X connect 14 0 15 0;
#X connect 15 0 16 0;
#X connect 16 0 17 0;
#X connect 16 0 19 1;
#X connect 17 0 24 0;
#X connect 18 0 14 0;
#X connect 20 0 18 1;
#X connect 21 0 9 1;
#X connect 22 0 1 0;
#X connect 23 0 22 0;
