#N canvas 862 174 450 311 10;
#X obj 32 58 mtof;
#X obj 33 86 osc~;
#X obj 34 34 hsl 128 15 0 127 0 0 empty empty empty -2 -8 0 10 -262144
-1 -1 7100 1;
#X obj 39 216 *~;
#X obj 112 99 osc~;
#X obj 114 121 +~ 1;
#X obj 114 147 *~ 0.5;
#X floatatom 112 76 5 0 0 0 - - -, f 5;
#X obj 52 263 dac~;
#X connect 0 0 1 0;
#X connect 1 0 3 0;
#X connect 2 0 0 0;
#X connect 3 0 8 0;
#X connect 3 0 8 1;
#X connect 4 0 5 0;
#X connect 5 0 6 0;
#X connect 6 0 3 1;
#X connect 7 0 4 0;
