#N canvas 162 177 946 479 10;
#X text 11 4 delayy, f 1;
#X obj 340 27 hsl 128 15 0 10 0 0 empty empty empty -2 -8 0 10 -262144
-1 -1 6500 1;
#X obj 262 165 *~ 2;
#X obj 262 185 +~ 2;
#X obj 301 207 *~ 2;
#X obj 300 230 +~ 2;
#X obj 48 139 delwrite~ phase2 100;
#X obj 300 256 vd~ phase2;
#X obj 301 163 wrap~;
#X obj 271 108 phasor~;
#X obj 300 142 +~ 0.5;
#X obj 262 142 cos~;
#X obj 301 183 cos~;
#X obj 427 155 hsl 128 15 0 3 0 0 empty empty empty -2 -8 0 10 -262144
-1 -1 10600 1;
#X obj 300 279 *~ 0.8;
#X obj 262 340 *~ 0.8;
#X obj 371 367 s~ output;
#X obj 69 351 r~ output;
#X obj 456 274 hsl 128 15 -0.9 0.9 0 0 empty empty empty -2 -8 0 10
-262144 -1 -1 4400 1;
#X text 176 73 <-- Write to delay lines;
#X text 372 253 <-- Read from delay line 2;
#X text 366 318 <-- Read from delay line 1;
#X obj 263 317 vd~ phase1;
#X text 334 108 <-- Low Frequency Oscillator (LFO);
#X floatatom 343 50 5 0 0 0 - - -, f 5;
#X floatatom 425 181 5 0 0 0 - - -, f 5;
#X floatatom 453 295 5 0 0 0 - - -, f 5;
#X text 387 48 <-- Speed (try 0.7);
#X text 569 153 <-- Depth (try 2.4);
#X text 596 274 <-- Feedback (try -0.3);
#X obj 109 439 outlet~;
#X obj 70 22 inlet~;
#X obj 49 79 delwrite~ phase1 100;
#X connect 1 0 9 0;
#X connect 1 0 24 0;
#X connect 2 0 3 0;
#X connect 3 0 22 0;
#X connect 4 0 5 0;
#X connect 5 0 7 0;
#X connect 7 0 14 0;
#X connect 7 0 16 0;
#X connect 8 0 12 0;
#X connect 9 0 10 0;
#X connect 9 0 11 0;
#X connect 10 0 8 0;
#X connect 11 0 2 0;
#X connect 12 0 4 0;
#X connect 13 0 2 1;
#X connect 13 0 4 1;
#X connect 13 0 3 1;
#X connect 13 0 5 1;
#X connect 13 0 25 0;
#X connect 14 0 6 0;
#X connect 15 0 30 0;
#X connect 15 0 32 0;
#X connect 17 0 30 0;
#X connect 18 0 15 1;
#X connect 18 0 14 1;
#X connect 18 0 26 0;
#X connect 22 0 15 0;
#X connect 22 0 16 0;
#X connect 31 0 6 0;
#X connect 31 0 32 0;
