#N canvas 399 322 946 420 10;
#X obj 85 -1 hsl 128 15 0 10 0 0 empty empty empty -2 -8 0 10 -262144
-1 -1 700 1;
#X obj 74 107 *~ 2;
#X obj 74 127 +~ 2;
#X obj 113 149 *~ 2;
#X obj 112 172 +~ 2;
#X obj 112 244 delwrite~ phase2 100;
#X obj 112 198 vd~ phase2;
#X obj 113 105 wrap~;
#X obj 83 50 phasor~;
#X obj 112 84 +~ 0.5;
#X obj 74 84 cos~;
#X obj 113 125 cos~;
#X obj 179 88 hsl 128 15 0 3 0 0 empty empty empty -2 -8 0 10 -262144
-1 -1 2500 1;
#X obj 112 221 *~ 0.8;
#X obj 74 289 *~ 0.8;
#X obj 183 309 s~ output;
#X obj 13 281 r~ output;
#X obj 198 200 hsl 128 15 -0.9 0.9 0 0 empty empty empty -2 -8 0 10
-262144 -1 -1 2300 1;
#X obj 75 266 vd~ phase1;
#X floatatom 101 23 5 0 0 0 - - -, f 5;
#X floatatom 177 114 5 0 0 0 - - -, f 5;
#X floatatom 195 221 5 0 0 0 - - -, f 5;
#X obj 13 311 outlet~;
#X obj 21 183 inlet~;
#X obj 74 334 delwrite~ phase1 100;
#X connect 0 0 8 0;
#X connect 0 0 19 0;
#X connect 1 0 2 0;
#X connect 2 0 18 0;
#X connect 3 0 4 0;
#X connect 4 0 6 0;
#X connect 6 0 13 0;
#X connect 6 0 15 0;
#X connect 7 0 11 0;
#X connect 8 0 9 0;
#X connect 8 0 10 0;
#X connect 9 0 7 0;
#X connect 10 0 1 0;
#X connect 11 0 3 0;
#X connect 12 0 1 1;
#X connect 12 0 3 1;
#X connect 12 0 2 1;
#X connect 12 0 4 1;
#X connect 12 0 20 0;
#X connect 13 0 5 0;
#X connect 14 0 22 0;
#X connect 14 0 24 0;
#X connect 16 0 22 0;
#X connect 17 0 14 1;
#X connect 17 0 13 1;
#X connect 17 0 21 0;
#X connect 18 0 14 0;
#X connect 18 0 15 0;
#X connect 23 0 5 0;
#X connect 23 0 24 0;
