#N canvas 127 381 450 300 10;
#X text 32 22 m_squarewave;
#X obj 32 75 mtof;
#X obj 133 72 mtof;
#X obj 32 98 phasor~;
#X obj 133 97 phasor~;
#X obj 31 150 expr~ $v1 && $v2;
#X obj 32 121 expr~ $v1 > $v2;
#X obj 131 120 expr~ $v1 > $v2;
#X obj 32 49 inlet;
#X obj 168 70 inlet;
#X obj 30 177 outlet~;
#X connect 1 0 3 0;
#X connect 2 0 4 0;
#X connect 3 0 6 0;
#X connect 4 0 7 0;
#X connect 5 0 10 0;
#X connect 6 0 5 0;
#X connect 7 0 5 1;
#X connect 8 0 1 0;
#X connect 8 0 2 0;
#X connect 9 0 4 1;
#X connect 9 0 6 1;
