#N canvas 310 219 699 514 10;
#X obj 15 54 tgl 15 0 empty empty empty 17 7 0 10 -262144 -1 -1 0 1
;
#X obj 14 103 f;
#X obj 14 126 mod 16;
#X obj 13 151 hradio 16 1 0 16 empty empty empty 0 -8 0 10 -262144
-1 -1 13;
#X obj 14 80 metro;
#X floatatom 41 55 5 0 0 0 - - -, f 5;
#X obj 44 102 + 1, f 6;
#X obj 13 175 select 0 1 2 3 4 5 6 7 8 9 10 11 12 13 14 15;
#X obj 11 351 f;
#X floatatom 11 374 5 0 0 0 - - -, f 5;
#X obj 26 215 vsl 15 128 0 127 0 0 empty empty empty 0 -9 0 10 -262144
-1 -1 9400 1;
#X obj 47 351 f;
#X floatatom 47 374 5 0 0 0 - - -, f 5;
#X obj 62 215 vsl 15 128 0 127 0 0 empty empty empty 0 -9 0 10 -262144
-1 -1 11700 1;
#X obj 84 351 f;
#X floatatom 84 374 5 0 0 0 - - -, f 5;
#X obj 99 215 vsl 15 128 0 127 0 0 empty empty empty 0 -9 0 10 -262144
-1 -1 9200 1;
#X obj 121 351 f;
#X floatatom 121 374 5 0 0 0 - - -, f 5;
#X obj 136 215 vsl 15 128 0 127 0 0 empty empty empty 0 -9 0 10 -262144
-1 -1 11600 1;
#X obj 158 350 f;
#X floatatom 158 373 5 0 0 0 - - -, f 5;
#X obj 173 214 vsl 15 128 0 127 0 0 empty empty empty 0 -9 0 10 -262144
-1 -1 0 1;
#X obj 193 351 f;
#X floatatom 193 374 5 0 0 0 - - -, f 5;
#X obj 208 215 vsl 15 128 0 127 0 0 empty empty empty 0 -9 0 10 -262144
-1 -1 0 1;
#X obj 228 351 f;
#X floatatom 228 374 5 0 0 0 - - -, f 5;
#X obj 243 215 vsl 15 128 0 127 0 0 empty empty empty 0 -9 0 10 -262144
-1 -1 0 1;
#X obj 264 351 f;
#X floatatom 264 374 5 0 0 0 - - -, f 5;
#X obj 279 215 vsl 15 128 0 127 0 0 empty empty empty 0 -9 0 10 -262144
-1 -1 0 1;
#X obj 302 351 f;
#X floatatom 302 374 5 0 0 0 - - -, f 5;
#X obj 317 215 vsl 15 128 0 127 0 0 empty empty empty 0 -9 0 10 -262144
-1 -1 0 1;
#X obj 338 351 f;
#X floatatom 338 374 5 0 0 0 - - -, f 5;
#X obj 353 215 vsl 15 128 0 127 0 0 empty empty empty 0 -9 0 10 -262144
-1 -1 0 1;
#X obj 375 351 f;
#X floatatom 375 374 5 0 0 0 - - -, f 5;
#X obj 390 215 vsl 15 128 0 127 0 0 empty empty empty 0 -9 0 10 -262144
-1 -1 0 1;
#X obj 412 351 f;
#X floatatom 412 374 5 0 0 0 - - -, f 5;
#X obj 427 215 vsl 15 128 0 127 0 0 empty empty empty 0 -9 0 10 -262144
-1 -1 0 1;
#X obj 449 350 f;
#X floatatom 449 373 5 0 0 0 - - -, f 5;
#X obj 464 214 vsl 15 128 0 127 0 0 empty empty empty 0 -9 0 10 -262144
-1 -1 0 1;
#X obj 484 351 f;
#X floatatom 484 374 5 0 0 0 - - -, f 5;
#X obj 499 215 vsl 15 128 0 127 0 0 empty empty empty 0 -9 0 10 -262144
-1 -1 0 1;
#X obj 519 351 f;
#X floatatom 519 374 5 0 0 0 - - -, f 5;
#X obj 534 215 vsl 15 128 0 127 0 0 empty empty empty 0 -9 0 10 -262144
-1 -1 0 1;
#X obj 555 351 f;
#X floatatom 555 374 5 0 0 0 - - -, f 5;
#X obj 570 215 vsl 15 128 0 127 0 0 empty empty empty 0 -9 0 10 -262144
-1 -1 0 1;
#X obj 593 350 f;
#X floatatom 593 373 5 0 0 0 - - -, f 5;
#X obj 608 214 vsl 15 128 0 127 0 0 empty empty empty 0 -9 0 10 -262144
-1 -1 0 1;
#X obj 15 410 mtof;
#X obj 14 441 outlet;
#X obj 105 56 random 127;
#X obj 173 56 random 127;
#X obj 109 1 loadbang;
#X obj 241 56 random 127;
#X obj 309 56 random 127;
#X msg 76 55 200;
#X obj 166 1 bng 15 250 50 0 empty empty empty 17 7 0 10 -262144 -1
-1;
#X obj 375 56 random 127;
#X obj 443 56 random 127;
#X obj 511 56 random 127;
#X obj 579 56 random 127;
#X obj 105 80 random 127;
#X obj 173 80 random 127;
#X obj 241 80 random 127;
#X obj 309 80 random 127;
#X obj 375 80 random 127;
#X obj 443 80 random 127;
#X obj 511 80 random 127;
#X obj 579 80 random 127;
#X obj 591 102 random 127;
#X connect 0 0 4 0;
#X connect 1 0 2 0;
#X connect 1 0 6 0;
#X connect 2 0 3 0;
#X connect 3 0 7 0;
#X connect 4 0 1 0;
#X connect 5 0 4 1;
#X connect 6 0 1 1;
#X connect 7 0 8 0;
#X connect 7 1 11 0;
#X connect 7 2 14 0;
#X connect 7 3 17 0;
#X connect 7 4 20 0;
#X connect 7 5 23 0;
#X connect 7 6 26 0;
#X connect 7 7 29 0;
#X connect 7 8 32 0;
#X connect 7 9 35 0;
#X connect 7 10 38 0;
#X connect 7 11 41 0;
#X connect 7 12 44 0;
#X connect 7 13 47 0;
#X connect 7 14 50 0;
#X connect 7 15 53 0;
#X connect 7 16 56 0;
#X connect 8 0 9 0;
#X connect 9 0 59 0;
#X connect 10 0 8 1;
#X connect 11 0 12 0;
#X connect 12 0 59 0;
#X connect 13 0 11 1;
#X connect 14 0 15 0;
#X connect 15 0 59 0;
#X connect 16 0 14 1;
#X connect 17 0 18 0;
#X connect 18 0 59 0;
#X connect 19 0 17 1;
#X connect 20 0 21 0;
#X connect 21 0 59 0;
#X connect 22 0 20 1;
#X connect 23 0 24 0;
#X connect 24 0 59 0;
#X connect 25 0 23 1;
#X connect 26 0 27 0;
#X connect 27 0 59 0;
#X connect 28 0 26 1;
#X connect 29 0 30 0;
#X connect 30 0 59 0;
#X connect 31 0 29 1;
#X connect 32 0 33 0;
#X connect 33 0 59 0;
#X connect 34 0 32 1;
#X connect 35 0 36 0;
#X connect 36 0 59 0;
#X connect 37 0 35 1;
#X connect 38 0 39 0;
#X connect 39 0 59 0;
#X connect 40 0 38 1;
#X connect 41 0 42 0;
#X connect 42 0 59 0;
#X connect 43 0 41 1;
#X connect 44 0 45 0;
#X connect 45 0 59 0;
#X connect 46 0 44 1;
#X connect 47 0 48 0;
#X connect 48 0 59 0;
#X connect 49 0 47 1;
#X connect 50 0 51 0;
#X connect 51 0 59 0;
#X connect 52 0 50 1;
#X connect 53 0 54 0;
#X connect 55 0 53 1;
#X connect 56 0 57 0;
#X connect 57 0 59 0;
#X connect 58 0 56 1;
#X connect 59 0 60 0;
#X connect 61 0 10 0;
#X connect 62 0 13 0;
#X connect 63 0 61 0;
#X connect 63 0 62 0;
#X connect 63 0 64 0;
#X connect 63 0 65 0;
#X connect 63 0 66 0;
#X connect 63 0 0 0;
#X connect 63 0 68 0;
#X connect 63 0 69 0;
#X connect 63 0 70 0;
#X connect 63 0 71 0;
#X connect 63 0 72 0;
#X connect 64 0 16 0;
#X connect 65 0 19 0;
#X connect 66 0 5 0;
#X connect 67 0 61 0;
#X connect 68 0 22 0;
#X connect 69 0 25 0;
#X connect 70 0 28 0;
#X connect 71 0 31 0;
#X connect 72 0 34 0;
#X connect 73 0 37 0;
#X connect 74 0 40 0;
#X connect 75 0 43 0;
#X connect 76 0 46 0;
#X connect 77 0 49 0;
#X connect 78 0 52 0;
#X connect 79 0 55 0;
#X connect 80 0 58 0;
