#N canvas 67 89 450 567 10;
#X obj 15 14 tgl 15 0 empty empty empty 17 7 0 10 -262144 -1 -1 1 1
;
#X obj 15 72 f;
#X obj 15 95 mod 16;
#X obj 14 120 hradio 16 1 0 16 empty empty empty 0 -8 0 10 -262144
-1 -1 10;
#X obj 15 49 metro;
#X floatatom 42 24 5 0 0 0 - - -, f 5;
#X obj 45 71 + 1, f 6;
#X obj 14 144 select 0 1 2 3 4 5 6 7 8 9 10 11 12 13 14 15;
#X obj 12 320 f;
#X floatatom 12 343 5 0 0 0 - - -, f 5;
#X obj 27 184 vsl 15 128 0 127 0 0 empty empty empty 0 -9 0 10 -262144
-1 -1 5900 1;
#X obj 48 320 f;
#X floatatom 48 343 5 0 0 0 - - -, f 5;
#X obj 63 184 vsl 15 128 0 127 0 0 empty empty empty 0 -9 0 10 -262144
-1 -1 2400 1;
#X obj 85 320 f;
#X floatatom 85 343 5 0 0 0 - - -, f 5;
#X obj 100 184 vsl 15 128 0 127 0 0 empty empty empty 0 -9 0 10 -262144
-1 -1 1700 1;
#X obj 122 320 f;
#X floatatom 122 343 5 0 0 0 - - -, f 5;
#X obj 137 184 vsl 15 128 0 127 0 0 empty empty empty 0 -9 0 10 -262144
-1 -1 2800 1;
#X obj 159 319 f;
#X floatatom 159 342 5 0 0 0 - - -, f 5;
#X obj 174 183 vsl 15 128 0 127 0 0 empty empty empty 0 -9 0 10 -262144
-1 -1 1500 1;
#X obj 194 320 f;
#X floatatom 194 343 5 0 0 0 - - -, f 5;
#X obj 209 184 vsl 15 128 0 127 0 0 empty empty empty 0 -9 0 10 -262144
-1 -1 1500 1;
#X obj 229 320 f;
#X floatatom 229 343 5 0 0 0 - - -, f 5;
#X obj 244 184 vsl 15 128 0 127 0 0 empty empty empty 0 -9 0 10 -262144
-1 -1 2200 1;
#X obj 265 320 f;
#X floatatom 265 343 5 0 0 0 - - -, f 5;
#X obj 280 184 vsl 15 128 0 127 0 0 empty empty empty 0 -9 0 10 -262144
-1 -1 1400 1;
#X obj 303 320 f;
#X floatatom 303 343 5 0 0 0 - - -, f 5;
#X obj 318 184 vsl 15 128 0 127 0 0 empty empty empty 0 -9 0 10 -262144
-1 -1 2900 1;
#X obj 339 320 f;
#X floatatom 339 343 5 0 0 0 - - -, f 5;
#X obj 354 184 vsl 15 128 0 127 0 0 empty empty empty 0 -9 0 10 -262144
-1 -1 1900 1;
#X obj 376 320 f;
#X floatatom 376 343 5 0 0 0 - - -, f 5;
#X obj 391 184 vsl 15 128 0 127 0 0 empty empty empty 0 -9 0 10 -262144
-1 -1 1600 1;
#X obj 413 320 f;
#X floatatom 413 343 5 0 0 0 - - -, f 5;
#X obj 428 184 vsl 15 128 0 127 0 0 empty empty empty 0 -9 0 10 -262144
-1 -1 6000 1;
#X obj 450 319 f;
#X floatatom 450 342 5 0 0 0 - - -, f 5;
#X obj 465 183 vsl 15 128 0 127 0 0 empty empty empty 0 -9 0 10 -262144
-1 -1 1300 1;
#X obj 485 320 f;
#X floatatom 485 343 5 0 0 0 - - -, f 5;
#X obj 500 184 vsl 15 128 0 127 0 0 empty empty empty 0 -9 0 10 -262144
-1 -1 4400 1;
#X obj 520 320 f;
#X floatatom 520 343 5 0 0 0 - - -, f 5;
#X obj 535 184 vsl 15 128 0 127 0 0 empty empty empty 0 -9 0 10 -262144
-1 -1 0 1;
#X obj 556 320 f;
#X floatatom 556 343 5 0 0 0 - - -, f 5;
#X obj 571 184 vsl 15 128 0 127 0 0 empty empty empty 0 -9 0 10 -262144
-1 -1 0 1;
#X obj 594 319 f;
#X floatatom 594 342 5 0 0 0 - - -, f 5;
#X obj 609 183 vsl 15 128 0 127 0 0 empty empty empty 0 -9 0 10 -262144
-1 -1 0 1;
#X obj 16 379 mtof;
#X obj 15 410 outlet;
#X connect 0 0 4 0;
#X connect 1 0 2 0;
#X connect 1 0 6 0;
#X connect 2 0 3 0;
#X connect 3 0 7 0;
#X connect 4 0 1 0;
#X connect 5 0 4 1;
#X connect 6 0 1 1;
#X connect 7 0 8 0;
#X connect 7 1 11 0;
#X connect 7 2 14 0;
#X connect 7 3 17 0;
#X connect 7 4 20 0;
#X connect 7 5 23 0;
#X connect 7 6 26 0;
#X connect 7 7 29 0;
#X connect 7 8 32 0;
#X connect 7 9 35 0;
#X connect 7 10 38 0;
#X connect 7 11 41 0;
#X connect 7 12 44 0;
#X connect 7 13 47 0;
#X connect 7 14 50 0;
#X connect 7 15 53 0;
#X connect 7 16 56 0;
#X connect 8 0 9 0;
#X connect 9 0 59 0;
#X connect 10 0 8 1;
#X connect 11 0 12 0;
#X connect 12 0 59 0;
#X connect 13 0 11 1;
#X connect 14 0 15 0;
#X connect 15 0 59 0;
#X connect 16 0 14 1;
#X connect 17 0 18 0;
#X connect 18 0 59 0;
#X connect 19 0 17 1;
#X connect 20 0 21 0;
#X connect 21 0 59 0;
#X connect 22 0 20 1;
#X connect 23 0 24 0;
#X connect 24 0 59 0;
#X connect 25 0 23 1;
#X connect 26 0 27 0;
#X connect 27 0 59 0;
#X connect 28 0 26 1;
#X connect 29 0 30 0;
#X connect 30 0 59 0;
#X connect 31 0 29 1;
#X connect 32 0 33 0;
#X connect 33 0 59 0;
#X connect 34 0 32 1;
#X connect 35 0 36 0;
#X connect 36 0 59 0;
#X connect 37 0 35 1;
#X connect 38 0 39 0;
#X connect 39 0 59 0;
#X connect 40 0 38 1;
#X connect 41 0 42 0;
#X connect 42 0 59 0;
#X connect 43 0 41 1;
#X connect 44 0 45 0;
#X connect 45 0 59 0;
#X connect 46 0 44 1;
#X connect 47 0 48 0;
#X connect 48 0 59 0;
#X connect 49 0 47 1;
#X connect 50 0 51 0;
#X connect 51 0 59 0;
#X connect 52 0 50 1;
#X connect 53 0 54 0;
#X connect 55 0 53 1;
#X connect 56 0 57 0;
#X connect 57 0 59 0;
#X connect 58 0 56 1;
#X connect 59 0 60 0;
