#N canvas 0 50 450 300 10;
#N canvas 43 0 1180 716 (subpatch) 0;
#X obj 18 177 hsl 128 15 0 1 0 0 IsaacPreampVol empty Master -2 -8
0 10 -262144 -1 -1 12700 1;
#X obj 19 46 hsl 128 15 0 1 0 0 IsaacPreampHigh empty Treble -2 -8
0 10 -262144 -1 -1 12700 1;
#X obj 18 110 hsl 128 15 0 1 0 0 IsaacPreampBass empty Bass -2 -8 0
10 -262144 -1 -1 12700 1;
#X obj 19 79 hsl 128 15 0 1 0 0 IsaacPreampMid empty Middle -2 -8 0
10 -262144 -1 -1 12700 1;
#X obj 18 144 hsl 128 15 0 1 0 0 IsaacPreampGain empty Gain -2 -8 0
10 -262144 -1 -1 12700 1;
#X obj 4 4 cnv 15 160 20 empty empty Champman_MkII_v1.0 0 10 0 14 -1
-191407 0;
#N canvas 0 50 566 300 spigot~ 0;
#X obj 63 24 inlet~;
#X obj 95 75 == 0;
#X obj 174 75 == 1;
#X obj 64 174 *~;
#X obj 180 166 *~;
#X obj 179 246 outlet~;
#X obj 63 244 outlet~;
#X obj 233 23 inlet;
#X connect 0 0 3 0;
#X connect 0 0 4 0;
#X connect 1 0 3 1;
#X connect 2 0 4 1;
#X connect 3 0 6 0;
#X connect 4 0 5 0;
#X connect 7 0 1 0;
#X connect 7 0 2 0;
#X restore 445 -236 pd spigot~;
#X obj 134 27 tgl 15 0 IsaacPreampEffectOn empty On 17 7 0 10 -262144
-1 -1 1 1;
#X msg 220 31 0;
#X obj 279 27 loadbang;
#X msg 222 61 10;
#X msg 218 148 1;
#N canvas 0 50 872 436 (subpatch) 0;
#X obj 3 1 cnv 15 100 20 empty empty Tube_Clip_v2 0 12 0 14 -233017
-66577 0;
#X obj 416 19 inlet~;
#X obj 416 292 outlet~;
#X floatatom 4 101 5 0 0 0 - - -, f 5;
#X msg 303 72 0.1;
#X obj 7 83 hsl 90 15 0 1 0 0 empty empty clip -2 -8 0 10 -262144 -1
-1 890 1;
#X obj 606 36 * -1;
#X floatatom 112 52 5 0 0 0 - - -, f 5;
#X obj 115 34 hsl 90 15 0 1 0 0 empty empty mix -2 -8 0 10 -262144
-1 -1 4450 1;
#X obj 417 264 +~;
#X obj 417 233 *~;
#X obj 545 232 *~;
#X obj 563 208 abs;
#X obj 563 182 - 1;
#X obj 349 11 loadbang;
#X obj 415 67 clip~ -1 1;
#X obj 546 69 clip~ -1 1;
#X floatatom 4 53 5 0 0 0 - - -, f 5;
#X obj 7 35 hsl 90 15 1 10 0 0 empty empty Threshold -2 -8 0 10 -262144
-1 -1 2967 1;
#X obj 482 25 * -1;
#X msg 302 101 0.5;
#X msg 306 48 4;
#X connect 1 0 15 0;
#X connect 1 0 16 0;
#X connect 3 0 6 0;
#X connect 3 0 15 2;
#X connect 4 0 5 0;
#X connect 5 0 3 0;
#X connect 6 0 16 1;
#X connect 7 0 10 1;
#X connect 7 0 13 0;
#X connect 8 0 7 0;
#X connect 9 0 2 0;
#X connect 10 0 9 0;
#X connect 11 0 9 1;
#X connect 12 0 11 1;
#X connect 13 0 12 0;
#X connect 14 0 4 0;
#X connect 14 0 20 0;
#X connect 14 0 21 0;
#X connect 15 0 10 0;
#X connect 16 0 11 0;
#X connect 17 0 19 0;
#X connect 17 0 16 2;
#X connect 18 0 17 0;
#X connect 19 0 15 1;
#X connect 20 0 8 0;
#X connect 21 0 18 0;
#X coords 0 1 100 -1 210 120 1 0 0;
#X restore 510 -118 graph;
#X obj 510 33 *~ -100;
#X obj 511 286 hip~ 20;
#X obj 551 391 * 0.6;
#X obj 551 368 pow 2;
#X obj 512 323 hip~ 2546;
#X obj 512 392 *~;
#X obj 513 425 +~;
#X obj 730 379 * 0.07;
#X obj 696 381 *~;
#X obj 926 275 * 0.5;
#X obj 926 248 pow 2;
#X obj 892 274 *~;
#X obj 892 366 lop~ 6.366;
#X obj 959 345 * 6.366;
#X obj 992 304 /;
#X obj 990 262 swap;
#X msg 1037 243 1000;
#X obj 1043 221 loadbang;
#X floatatom 1026 326 5 0 0 0 - - -, f 5;
#X floatatom 986 222 5 0 0 0 - - -, f 5;
#X obj 986 200 * 1000;
#X obj 513 447 *~;
#X obj 546 447 pow 2;
#N canvas 0 50 872 436 (subpatch) 0;
#X obj 3 1 cnv 15 100 20 empty empty Tube_Clip_v2 0 12 0 14 -233017
-66577 0;
#X obj 416 19 inlet~;
#X obj 416 292 outlet~;
#X floatatom 4 101 5 0 0 0 - - -, f 5;
#X obj 7 83 hsl 90 15 0 1 0 0 empty empty clip -2 -8 0 10 -262144 -1
-1 2670 1;
#X obj 606 36 * -1;
#X floatatom 112 52 5 0 0 0 - - -, f 5;
#X obj 115 34 hsl 90 15 0 1 0 0 empty empty mix -2 -8 0 10 -262144
-1 -1 7120 1;
#X obj 417 264 +~;
#X obj 417 233 *~;
#X obj 545 232 *~;
#X obj 563 208 abs;
#X obj 563 182 - 1;
#X obj 349 11 loadbang;
#X obj 415 67 clip~ -1 1;
#X obj 546 69 clip~ -1 1;
#X floatatom 4 53 5 0 0 0 - - -, f 5;
#X obj 7 35 hsl 90 15 1 10 0 0 empty empty Threshold -2 -8 0 10 -262144
-1 -1 8900 1;
#X obj 482 25 * -1;
#X msg 303 72 0.3;
#X msg 302 102 0.8;
#X msg 306 48 10;
#X connect 1 0 14 0;
#X connect 1 0 15 0;
#X connect 3 0 5 0;
#X connect 3 0 14 2;
#X connect 4 0 3 0;
#X connect 5 0 15 1;
#X connect 6 0 9 1;
#X connect 6 0 12 0;
#X connect 7 0 6 0;
#X connect 8 0 2 0;
#X connect 9 0 8 0;
#X connect 10 0 8 1;
#X connect 11 0 10 1;
#X connect 12 0 11 0;
#X connect 13 0 19 0;
#X connect 13 0 20 0;
#X connect 13 0 21 0;
#X connect 14 0 9 0;
#X connect 15 0 10 0;
#X connect 16 0 18 0;
#X connect 16 0 15 2;
#X connect 17 0 16 0;
#X connect 18 0 14 1;
#X connect 19 0 4 0;
#X connect 20 0 7 0;
#X connect 21 0 17 0;
#X coords 0 1 100 -1 210 120 1 0 0;
#X restore 512 491 graph;
#X obj 512 616 hip~ 20;
#X obj 511 664 hip~ 36.172;
#X obj 513 1073 *~;
#X obj 589 1094 pow 2;
#N canvas 0 50 872 436 (subpatch) 0;
#X obj 3 1 cnv 15 100 20 empty empty Tube_Clip_v2 0 12 0 14 -233017
-66577 0;
#X obj 416 19 inlet~;
#X obj 416 292 outlet~;
#X floatatom 4 101 5 0 0 0 - - -, f 5;
#X obj 7 83 hsl 90 15 0 1 0 0 empty empty clip -2 -8 0 10 -262144 -1
-1 2670 1;
#X obj 606 36 * -1;
#X floatatom 112 52 5 0 0 0 - - -, f 5;
#X obj 115 34 hsl 90 15 0 1 0 0 empty empty mix -2 -8 0 10 -262144
-1 -1 4450 1;
#X obj 417 264 +~;
#X obj 417 233 *~;
#X obj 545 232 *~;
#X obj 563 208 abs;
#X obj 563 182 - 1;
#X obj 349 11 loadbang;
#X obj 415 67 clip~ -1 1;
#X obj 546 69 clip~ -1 1;
#X floatatom 4 53 5 0 0 0 - - -, f 5;
#X obj 7 35 hsl 90 15 1 10 0 0 empty empty Threshold -2 -8 0 10 -262144
-1 -1 8900 1;
#X obj 482 25 * -1;
#X msg 303 72 0.3;
#X msg 303 101 0.5;
#X msg 307 48 100, f 4;
#X connect 1 0 14 0;
#X connect 1 0 15 0;
#X connect 3 0 5 0;
#X connect 3 0 14 2;
#X connect 4 0 3 0;
#X connect 5 0 15 1;
#X connect 6 0 9 1;
#X connect 6 0 12 0;
#X connect 7 0 6 0;
#X connect 8 0 2 0;
#X connect 9 0 8 0;
#X connect 10 0 8 1;
#X connect 11 0 10 1;
#X connect 12 0 11 0;
#X connect 13 0 19 0;
#X connect 13 0 20 0;
#X connect 13 0 21 0;
#X connect 14 0 9 0;
#X connect 15 0 10 0;
#X connect 16 0 18 0;
#X connect 16 0 15 2;
#X connect 17 0 16 0;
#X connect 18 0 14 1;
#X connect 19 0 4 0;
#X connect 20 0 7 0;
#X connect 21 0 17 0;
#X coords 0 1 100 -1 210 120 1 0 0;
#X restore 529 711 graph;
#X obj 512 836 hip~ 21;
#X obj 512 858 *~ -1;
#X obj 221 200 == 1;
#X obj 221 298 switch~ 64 64;
#X msg 258 246 set 64 1 \, 1;
#X obj 513 469 lop~ 5000;
#X obj 511 686 lop~ 5000;
#X obj 512 -144 lop~ 5000;
#X obj 512 880 *~ 0.05;
#X obj 512 638 *~ -1;
#N canvas 0 50 566 300 spigot~ 0;
#X obj 63 24 inlet~;
#X obj 95 75 == 0;
#X obj 174 75 == 1;
#X obj 64 174 *~;
#X obj 180 166 *~;
#X obj 179 246 outlet~;
#X obj 63 244 outlet~;
#X obj 233 23 inlet;
#X connect 0 0 3 0;
#X connect 0 0 4 0;
#X connect 1 0 3 1;
#X connect 2 0 4 1;
#X connect 3 0 6 0;
#X connect 4 0 5 0;
#X connect 7 0 1 0;
#X connect 7 0 2 0;
#X restore 477 -207 pd spigot~;
#X obj 479 -172 *~ 1;
#N canvas 0 50 566 300 spigot~ 0;
#X obj 63 24 inlet~;
#X obj 95 75 == 0;
#X obj 174 75 == 1;
#X obj 64 174 *~;
#X obj 180 166 *~;
#X obj 179 246 outlet~;
#X obj 63 244 outlet~;
#X obj 233 23 inlet;
#X connect 0 0 3 0;
#X connect 0 0 4 0;
#X connect 1 0 3 1;
#X connect 2 0 4 1;
#X connect 3 0 6 0;
#X connect 4 0 5 0;
#X connect 7 0 1 0;
#X connect 7 0 2 0;
#X restore 514 925 pd spigot~;
#X obj 490 994 *~ 1;
#X obj 541 -170 *~ 0.1;
#N canvas 0 50 566 300 spigot~ 0;
#X obj 63 24 inlet~;
#X obj 95 75 == 0;
#X obj 174 75 == 1;
#X obj 64 174 *~;
#X obj 180 166 *~;
#X obj 179 246 outlet~;
#X obj 63 244 outlet~;
#X obj 233 23 inlet;
#X connect 0 0 3 0;
#X connect 0 0 4 0;
#X connect 1 0 3 1;
#X connect 2 0 4 1;
#X connect 3 0 6 0;
#X connect 4 0 5 0;
#X connect 7 0 1 0;
#X connect 7 0 2 0;
#X restore 514 89 pd spigot~;
#X obj 516 169 *~ 1;
#X obj 578 171 *~ 0.1;
#X obj 577 1020 lop~ 8000;
#X obj 608 87 r IsaacPreampOpt;
#X obj 608 924 r IsaacPreampOpt;
#X obj 591 446 r IsaacPreampGain;
#X obj 551 346 r IsaacPreampHigh;
#X obj 730 352 r IsaacPreampMid;
#X obj 927 164 r IsaacPreampBass;
#X obj 589 1072 r IsaacPreampVol;
#X obj 571 -209 r IsaacPreampOpt;
#X obj 528 -238 r IsaacPreampEffectOn;
#X obj 445 -262 inlet~;
#X obj 266 168 r IsaacPreampEffectOn;
#X obj 443 1073 +~;
#X obj 445 1103 outlet~;
#X obj 76 27 tgl 15 0 IsaacPreampOpt empty Boost 17 7 0 10 -262144
-1 -1 1 1;
#X obj 577 999 *~ 6;
#X connect 6 0 72 0;
#X connect 6 1 52 0;
#X connect 8 0 7 0;
#X connect 8 0 74 0;
#X connect 9 0 8 0;
#X connect 9 0 10 0;
#X connect 9 0 11 0;
#X connect 10 0 3 0;
#X connect 10 0 1 0;
#X connect 10 0 2 0;
#X connect 11 0 4 0;
#X connect 11 0 0 0;
#X connect 12 0 13 0;
#X connect 13 0 57 0;
#X connect 14 0 17 0;
#X connect 14 0 21 0;
#X connect 14 0 24 0;
#X connect 15 0 18 1;
#X connect 16 0 15 0;
#X connect 17 0 18 0;
#X connect 18 0 19 0;
#X connect 19 0 34 0;
#X connect 20 0 21 1;
#X connect 21 0 19 0;
#X connect 22 0 24 1;
#X connect 23 0 22 0;
#X connect 23 0 33 0;
#X connect 24 0 25 0;
#X connect 25 0 19 1;
#X connect 26 0 25 1;
#X connect 27 0 31 0;
#X connect 27 0 26 0;
#X connect 28 0 27 0;
#X connect 28 1 27 1;
#X connect 29 0 28 1;
#X connect 30 0 29 0;
#X connect 32 0 28 0;
#X connect 33 0 32 0;
#X connect 34 0 47 0;
#X connect 35 0 34 1;
#X connect 36 0 37 0;
#X connect 37 0 51 0;
#X connect 38 0 48 0;
#X connect 39 0 72 1;
#X connect 40 0 39 1;
#X connect 41 0 42 0;
#X connect 42 0 43 0;
#X connect 43 0 50 0;
#X connect 44 0 45 0;
#X connect 44 0 46 0;
#X connect 46 0 45 0;
#X connect 47 0 36 0;
#X connect 48 0 41 0;
#X connect 49 0 12 0;
#X connect 50 0 54 0;
#X connect 51 0 38 0;
#X connect 52 0 56 0;
#X connect 52 1 53 0;
#X connect 53 0 49 0;
#X connect 54 0 75 0;
#X connect 54 1 55 0;
#X connect 55 0 39 0;
#X connect 56 0 49 0;
#X connect 57 0 59 0;
#X connect 57 1 58 0;
#X connect 58 0 14 0;
#X connect 59 0 14 0;
#X connect 60 0 39 0;
#X connect 61 0 57 1;
#X connect 62 0 54 1;
#X connect 63 0 35 0;
#X connect 64 0 16 0;
#X connect 65 0 20 0;
#X connect 66 0 23 0;
#X connect 67 0 40 0;
#X connect 68 0 52 1;
#X connect 69 0 6 1;
#X connect 70 0 6 0;
#X connect 71 0 44 0;
#X connect 72 0 73 0;
#X connect 75 0 60 0;
#X coords 0 1 100 -1 170 200 1 0 0;
#X restore 51 44 graph;
#X obj 50 16 adc~;
#X obj 50 259 dac~;
#X connect 0 0 2 0;
#X connect 0 0 2 1;
#X connect 1 0 0 0;
#X connect 1 1 0 0;
